<svg width="9" height="6" viewBox="0 0 9 6" fill="none" xmlns="http://www.w3.org/2000/svg">
<path d="M1.07067 2.47541C1.07067 2.47541 2.76591 5.57763 3.47969 5.81627C4.19347 5.97535 4.10425 4.6231 4.10425 4.6231C4.10425 4.6231 4.72881 6.21399 5.44259 5.97535C6.06715 5.81627 5.88871 4.46402 5.88871 4.46402C5.88871 4.46402 6.51327 5.73672 7.04861 5.339C7.58395 5.02082 7.49472 3.74812 7.49472 3.74812C7.49472 3.74812 7.67317 4.86174 8.38695 4.94128C9.18996 5.02082 8.92229 3.3504 8.29773 1.9186C7.67316 0.566353 7.31628 0.00954532 6.87017 0.0890894C6.42405 0.168634 6.33482 0.407266 6.33482 0.407266C6.33482 0.407266 5.44259 -0.229087 4.99648 0.0890894C4.46114 0.407266 4.46115 0.725442 4.46115 0.725442C4.46115 0.725442 3.21202 -0.0699982 2.7659 0.248178C2.23057 0.645899 2.23057 1.12316 2.23057 1.12316C2.23057 1.12316 1.07066 0.407266 0.713773 0.884531C0.446104 1.28225 0 2.47541 0 2.47541H1.07067Z" fill="#FFB68E"/>
</svg>
