<svg width="63" height="44" viewBox="0 0 63 44" fill="none" xmlns="http://www.w3.org/2000/svg">
<path d="M0.487332 43.8809L0 43.5913C0.730995 42.7223 15.9194 22.5197 19.412 20.8543C19.4661 20.8543 19.5203 20.8302 19.5744 20.7819C20.9552 20.3474 29.4022 16.0028 38.2554 11.4409C51.5757 4.56188 60.4289 0.0724108 61.4848 0C61.566 0 61.7284 5.50292e-07 61.8909 0.144822C62.7031 0.94134 63.2717 6.80661 62.8655 8.90652L62.3782 8.83411C62.7843 6.51697 62.0533 0.868931 61.4035 0.434466C60.5101 0.506877 48.3269 6.80661 38.5803 11.8754C29.6459 16.4372 21.1988 20.7819 19.8181 21.2888C19.7639 21.2888 19.7098 21.2888 19.6556 21.2888C16.8941 22.5922 4.95452 37.9432 0.487332 43.8809Z" fill="#012C20"/>
</svg>
