<svg width="18" height="17" viewBox="0 0 18 17" fill="none" xmlns="http://www.w3.org/2000/svg">
<path d="M9 0C7.21997 0 5.47991 0.498516 3.99987 1.43251C2.51983 2.3665 1.36628 3.69402 0.685088 5.24719C0.00389956 6.80036 -0.17433 8.50943 0.172936 10.1583C0.520203 11.8071 1.37737 13.3217 2.63604 14.5104C3.89471 15.6992 5.49836 16.5087 7.24419 16.8367C8.99002 17.1646 10.7996 16.9963 12.4442 16.353C14.0887 15.7096 15.4943 14.6202 16.4832 13.2223C17.4722 11.8245 18 10.1811 18 8.5C17.9977 6.24632 17.0488 4.08557 15.3614 2.49198C13.6741 0.898392 11.3862 0.00216388 9 0ZM9 15.6923C7.49382 15.6923 6.02146 15.2705 4.76912 14.4802C3.51678 13.6899 2.5407 12.5666 1.96431 11.2524C1.38792 9.93815 1.23711 8.49202 1.53095 7.09685C1.82479 5.70168 2.55008 4.42013 3.61511 3.41427C4.68014 2.40841 6.03708 1.72341 7.51431 1.44589C8.99155 1.16837 10.5228 1.31081 11.9143 1.85517C13.3058 2.39954 14.4952 3.3214 15.332 4.50417C16.1688 5.68694 16.6154 7.07749 16.6154 8.5C16.6131 10.4069 15.81 12.235 14.3824 13.5833C12.9547 14.9317 11.019 15.6901 9 15.6923ZM10.3846 12.4231C10.3846 12.5965 10.3117 12.7628 10.1818 12.8854C10.052 13.008 9.87592 13.0769 9.69231 13.0769H9C8.81639 13.0769 8.6403 13.008 8.51047 12.8854C8.38063 12.7628 8.30769 12.5965 8.30769 12.4231V8.5C8.12408 8.5 7.94799 8.43111 7.81816 8.30849C7.68833 8.18587 7.61539 8.01956 7.61539 7.84615C7.61539 7.67274 7.68833 7.50643 7.81816 7.38381C7.94799 7.26119 8.12408 7.19231 8.30769 7.19231H9C9.18361 7.19231 9.3597 7.26119 9.48954 7.38381C9.61937 7.50643 9.69231 7.67274 9.69231 7.84615V11.7692C9.87592 11.7692 10.052 11.8381 10.1818 11.9607C10.3117 12.0834 10.3846 12.2497 10.3846 12.4231ZM7.78846 4.90385C7.78846 4.70987 7.84937 4.52025 7.96348 4.35896C8.07758 4.19767 8.23977 4.07196 8.42952 3.99773C8.61928 3.9235 8.82808 3.90408 9.02952 3.94192C9.23096 3.97976 9.416 4.07317 9.56123 4.21034C9.70646 4.3475 9.80536 4.52226 9.84543 4.71251C9.8855 4.90276 9.86494 5.09996 9.78634 5.27917C9.70774 5.45838 9.57464 5.61156 9.40386 5.71933C9.23309 5.82709 9.03231 5.88461 8.82693 5.88461C8.55151 5.88461 8.28737 5.78128 8.09262 5.59735C7.89787 5.41342 7.78846 5.16396 7.78846 4.90385Z" fill="black"/>
</svg>
