<svg width="12" height="11" viewBox="0 0 12 11" fill="none" xmlns="http://www.w3.org/2000/svg">
<path d="M5.44164 0.235099C5.54349 -0.0783609 5.98695 -0.0783616 6.0888 0.235099L7.21657 3.70603C7.26212 3.84621 7.39276 3.94112 7.54015 3.94112H11.1897C11.5193 3.94112 11.6563 4.36288 11.3897 4.55661L8.43714 6.70176C8.31789 6.7884 8.268 6.94197 8.31354 7.08215L9.44132 10.5531C9.54317 10.8665 9.1844 11.1272 8.91775 10.9335L5.9652 8.78832C5.84596 8.70168 5.68448 8.70168 5.56524 8.78832L2.61269 10.9335C2.34604 11.1272 1.98727 10.8665 2.08912 10.5531L3.2169 7.08215C3.26245 6.94197 3.21255 6.7884 3.0933 6.70176L0.140752 4.55661C-0.125893 4.36288 0.0111439 3.94112 0.340735 3.94112H3.99029C4.13768 3.94112 4.26832 3.84621 4.31387 3.70603L5.44164 0.235099Z" fill="#FFD800"/>
</svg>
