<svg width="17" height="61" viewBox="0 0 17 61" fill="none" xmlns="http://www.w3.org/2000/svg">
<path d="M14.4125 60.9998C13.4291 60.9998 12.0361 60.7076 10.1514 59.8309C5.97234 57.9315 4.7432 56.9088 4.66126 56.8357L4.57932 56.7627V56.6166C4.57932 56.5435 4.49738 52.8908 4.33349 49.3843C4.08766 45.8777 1.13772 16.4371 0.400236 10.0814C-0.337249 3.79878 0.15441 0.438317 0.236353 0.29221C0.236353 0.0730492 0.400238 0 0.646067 0C0.809952 0 0.973834 0.219161 0.891891 0.365268C0.891891 0.365268 0.400237 3.79879 1.13772 10.0083C1.87521 16.4371 4.82515 45.8777 4.98904 49.3843C5.23486 52.5256 5.3168 55.7399 5.3168 56.4705C5.64457 56.7627 7.0376 57.7124 10.4792 59.2465C14.3305 61.0728 15.7235 60.0501 15.7235 60.0501C15.8874 59.904 16.0513 59.904 16.2152 60.0501C16.3791 60.1962 16.2971 60.4154 16.2152 60.4884C16.1332 60.5615 15.6416 60.9998 14.4125 60.9998Z" fill="#012C20"/>
</svg>
