<svg width="11" height="19" viewBox="0 0 11 19" fill="none" xmlns="http://www.w3.org/2000/svg">
<path d="M8.72297 18.624L0.275726 10.2018C0.175462 10.1016 0.104609 9.99296 0.0631661 9.87599C0.0210552 9.75901 0 9.63368 0 9.5C0 9.36631 0.0210552 9.24098 0.0631661 9.12401C0.104609 9.00703 0.175462 8.89841 0.275726 8.79815L8.72297 0.350923C8.95692 0.116974 9.24936 0 9.60028 0C9.95121 0 10.252 0.12533 10.5027 0.375989C10.7533 0.626649 10.8787 0.919085 10.8787 1.2533C10.8787 1.58751 10.7533 1.87995 10.5027 2.13061L3.13325 9.5L10.5027 16.8694C10.7366 17.1033 10.8536 17.3914 10.8536 17.7337C10.8536 18.0766 10.7283 18.3733 10.4776 18.624C10.2269 18.8747 9.9345 19 9.60028 19C9.26607 19 8.97363 18.8747 8.72297 18.624Z" fill="#FBFAFA"/>
</svg>
