<svg width="11" height="19" viewBox="0 0 11 19" fill="none" xmlns="http://www.w3.org/2000/svg">
<path d="M2.15566 18.624L10.6029 10.2018C10.7032 10.1016 10.774 9.99296 10.8155 9.87599C10.8576 9.75901 10.8786 9.63368 10.8786 9.5C10.8786 9.36631 10.8576 9.24098 10.8155 9.12401C10.774 9.00703 10.7032 8.89841 10.6029 8.79815L2.15566 0.350923C1.92171 0.116974 1.62928 0 1.27835 0C0.927429 0 0.626636 0.12533 0.375976 0.375989C0.125315 0.626649 -1.39813e-05 0.919085 -1.39813e-05 1.2533C-1.39813e-05 1.58751 0.125315 1.87995 0.375976 2.13061L7.74538 9.5L0.375976 16.8694C0.142026 17.1033 0.0250515 17.3914 0.0250515 17.7337C0.0250515 18.0766 0.150382 18.3733 0.401042 18.624C0.651703 18.8747 0.944139 19 1.27835 19C1.61257 19 1.905 18.8747 2.15566 18.624Z" fill="#FBFAFA"/>
</svg>
