<svg width="34" height="34" viewBox="0 0 34 34" fill="none" xmlns="http://www.w3.org/2000/svg">
<path d="M23.7008 2.92542H10.2991C9.41035 2.9788 8.57853 3.38072 7.98435 4.04386C7.39018 4.70699 7.08166 5.57779 7.1258 6.46708V27.5329C7.08166 28.4222 7.39018 29.293 7.98435 29.9561C8.57853 30.6193 9.41035 31.0212 10.2991 31.0746H23.7008C24.5896 31.0212 25.4214 30.6193 26.0156 29.9561C26.6098 29.293 26.9183 28.4222 26.8741 27.5329V6.46708C26.9183 5.57779 26.6098 4.70699 26.0156 4.04386C25.4214 3.38072 24.5896 2.9788 23.7008 2.92542ZM25.4575 27.5329C25.5007 28.0465 25.341 28.5566 25.0126 28.9538C24.6843 29.351 24.2133 29.6038 23.7008 29.6579H10.2991C9.7866 29.6038 9.31567 29.351 8.9873 28.9538C8.65892 28.5566 8.49923 28.0465 8.54247 27.5329V6.46708C8.49923 5.95351 8.65892 5.44344 8.9873 5.04621C9.31567 4.64899 9.7866 4.39621 10.2991 4.34208H12.4666V5.06458C12.4666 5.44031 12.6159 5.80064 12.8816 6.06632C13.1472 6.33199 13.5076 6.48125 13.8833 6.48125H20.1166C20.4924 6.48125 20.8527 6.33199 21.1184 6.06632C21.384 5.80064 21.5333 5.44031 21.5333 5.06458V4.34208H23.7008C24.2133 4.39621 24.6843 4.64899 25.0126 5.04621C25.341 5.44344 25.5007 5.95351 25.4575 6.46708V27.5329Z" fill="white"/>
<path d="M14.1666 26.8232H19.8333C20.0212 26.8232 20.2013 26.7485 20.3342 26.6157C20.467 26.4829 20.5416 26.3027 20.5416 26.1148C20.5416 25.927 20.467 25.7468 20.3342 25.614C20.2013 25.4811 20.0212 25.4065 19.8333 25.4065H14.1666C13.9788 25.4065 13.7986 25.4811 13.6658 25.614C13.5329 25.7468 13.4583 25.927 13.4583 26.1148C13.4583 26.3027 13.5329 26.4829 13.6658 26.6157C13.7986 26.7485 13.9788 26.8232 14.1666 26.8232Z" fill="white"/>
</svg>
