<svg width="11" height="19" viewBox="0 0 11 19" fill="none" xmlns="http://www.w3.org/2000/svg">
<path d="M2.15568 18.624L10.6029 10.2018C10.7032 10.1016 10.774 9.99296 10.8155 9.87599C10.8576 9.75901 10.8787 9.63368 10.8787 9.5C10.8787 9.36631 10.8576 9.24098 10.8155 9.12401C10.774 9.00703 10.7032 8.89841 10.6029 8.79815L2.15568 0.350923C1.92173 0.116974 1.62929 0 1.27837 0C0.927443 0 0.62665 0.12533 0.37599 0.375989C0.125329 0.626649 0 0.919085 0 1.2533C0 1.58751 0.125329 1.87995 0.37599 2.13061L7.7454 9.5L0.37599 16.8694C0.14204 17.1033 0.0250655 17.3914 0.0250655 17.7337C0.0250655 18.0766 0.150396 18.3733 0.401056 18.624C0.651716 18.8747 0.944153 19 1.27837 19C1.61258 19 1.90502 18.8747 2.15568 18.624Z" fill="#8C161D"/>
</svg>
