<svg width="3" height="2" viewBox="0 0 3 2" fill="none" xmlns="http://www.w3.org/2000/svg">
<path fill-rule="evenodd" clip-rule="evenodd" d="M2.91014 0.368259C2.94187 0.462384 2.9736 0.556512 2.95244 0.66478L3.00004 0.805968L0.577937 1.65894L0.424575 1.54604C0.292371 1.32487 -0.0249219 0.896677 0.00152607 0.633079C0.0508862 0.551472 0.105534 0.485551 0.16547 0.435318C0.361142 0.331683 2.34958 -0.0974883 2.67746 0.0200455C2.76207 0.100027 2.86255 0.227072 2.91014 0.368259ZM2.45005 0.542613C2.4289 0.479863 2.41832 0.44849 2.41832 0.44849C2.06929 0.439224 0.874108 0.656244 0.503919 0.755246C0.535647 0.849371 0.65199 1.02348 0.752466 1.15053L2.45005 0.542613Z" fill="#322C2D"/>
</svg>
