<svg width="30" height="30" viewBox="0 0 30 30" fill="none" xmlns="http://www.w3.org/2000/svg">
<path fill-rule="evenodd" clip-rule="evenodd" d="M21.2308 0.0576914C22.7885 0.115384 23.8846 0.403846 24.8654 0.75C25.8462 1.15385 26.6539 1.67308 27.5192 2.48077C28.3269 3.34615 28.8462 4.15385 29.25 5.13462C29.5962 6.11539 29.8846 7.21154 29.9423 8.76923C30 10.3846 30 10.9038 30 15C30 19.0385 30 19.5577 29.9423 21.1731C29.8846 22.7308 29.5962 23.8269 29.25 24.8077C28.8462 25.7885 28.3269 26.6539 27.5192 27.4615C26.6539 28.2692 25.8462 28.7885 24.8654 29.1923C23.8846 29.5385 22.7885 29.8269 21.2308 29.8846C19.6154 29.9423 19.0962 30 15 30C10.9615 30 10.4423 29.9423 8.82693 29.8846C7.21154 29.8269 6.17308 29.5385 5.19231 29.1923C4.21154 28.7885 3.34616 28.2692 2.53847 27.4615C1.67308 26.6539 1.21154 25.7885 0.807698 24.8077C0.403852 23.8269 0.173084 22.7308 0.115392 21.1731C0.0576994 19.5577 0 19.0385 0 15C0 10.9038 0.0576994 10.3846 0.115392 8.76923C0.173084 7.21154 0.403852 6.11539 0.807698 5.13462C1.21154 4.15385 1.67308 3.34615 2.53847 2.48077C3.34616 1.67308 4.21154 1.15385 5.19231 0.75C6.17308 0.403846 7.21154 0.115384 8.82693 0.0576914C10.4423 -8.81175e-07 10.9615 0 15 0C19.0962 0 19.6154 -8.81175e-07 21.2308 0.0576914ZM8.94231 2.76923C7.5 2.82692 6.69232 3.05769 6.17308 3.28846C5.48078 3.57692 4.96155 3.86538 4.44232 4.38462C3.92308 4.90385 3.57693 5.42308 3.34616 6.11539C3.11539 6.63462 2.88462 7.44231 2.82693 8.94231C2.71154 10.5 2.71155 10.9615 2.71155 15C2.71155 18.9808 2.71154 19.4423 2.82693 21.0577C2.88462 22.5 3.11539 23.3077 3.34616 23.8269C3.57693 24.5192 3.92308 25.0385 4.44232 25.5577C4.96155 26.0769 5.48078 26.4231 6.17308 26.6539C6.69232 26.8846 7.5 27.1154 8.94231 27.1731C10.5577 27.2885 11.0192 27.2885 15 27.2885C19.0385 27.2885 19.5 27.2885 21.0577 27.1731C22.5577 27.1154 23.3654 26.8846 23.8846 26.6539C24.5769 26.4231 25.0385 26.0769 25.6154 25.5577C26.1346 25.0385 26.4231 24.5192 26.7115 23.8269C26.9423 23.3077 27.1731 22.5 27.2308 21.0577C27.2885 19.4423 27.3462 18.9808 27.3462 15C27.3462 10.9615 27.2885 10.5 27.2308 8.94231C27.1731 7.44231 26.9423 6.63462 26.7115 6.11539C26.4231 5.42308 26.1346 4.90385 25.6154 4.38462C25.0385 3.86538 24.5769 3.57692 23.8846 3.28846C23.3654 3.05769 22.5577 2.82692 21.0577 2.76923C19.5 2.71154 19.0385 2.65385 15 2.65385C11.0192 2.65385 10.5577 2.71154 8.94231 2.76923Z" fill="white"/>
<path fill-rule="evenodd" clip-rule="evenodd" d="M22.7308 15.0002C22.7308 19.2117 19.2692 22.6732 15 22.6732C10.7885 22.6732 7.32692 19.2117 7.32692 15.0002C7.32692 10.7309 10.7885 7.26939 15 7.26939C19.2692 7.26939 22.7308 10.7309 22.7308 15.0002ZM20.0192 15.0002C20.0192 12.2309 17.7692 9.98093 15 9.98093C12.2308 9.98093 10.0385 12.2309 10.0385 15.0002C10.0385 17.7117 12.2308 19.9617 15 19.9617C17.7692 19.9617 20.0192 17.7117 20.0192 15.0002Z" fill="white"/>
<path d="M24.8077 6.98081C24.8077 7.96158 24 8.76927 23.0192 8.76927C22.0385 8.76927 21.2308 7.96158 21.2308 6.98081C21.2308 6.00004 22.0385 5.19235 23.0192 5.19235C24 5.19235 24.8077 6.00004 24.8077 6.98081Z" fill="white"/>
</svg>
