<svg width="13" height="12" viewBox="0 0 13 12" fill="none" xmlns="http://www.w3.org/2000/svg">
<path d="M5.93657 0.256459C6.04768 -0.0854985 6.53145 -0.0854978 6.64256 0.256459L7.87286 4.04293C7.92255 4.19586 8.06506 4.2994 8.22586 4.2994H12.2072C12.5668 4.2994 12.7162 4.7595 12.4254 4.97084L9.20439 7.31101C9.0743 7.40553 9.01987 7.57306 9.06956 7.72598L10.2999 11.5125C10.411 11.8544 10.0196 12.1388 9.7287 11.9274L6.50773 9.58726C6.37764 9.49275 6.20149 9.49275 6.0714 9.58726L2.85043 11.9274C2.55955 12.1388 2.16816 11.8544 2.27927 11.5125L3.50957 7.72598C3.55926 7.57306 3.50483 7.40553 3.37474 7.31101L0.153772 4.97084C-0.137114 4.7595 0.0123818 4.2994 0.371937 4.2994H4.35327C4.51407 4.2994 4.65658 4.19586 4.70627 4.04293L5.93657 0.256459Z" fill="#FFD800"/>
</svg>
