<svg width="13" height="12" viewBox="0 0 13 12" fill="none" xmlns="http://www.w3.org/2000/svg">
<path d="M5.93652 0.25652C6.04763 -0.0854349 6.5314 -0.0854342 6.64251 0.25652L7.8728 4.04296C7.92249 4.19589 8.065 4.29943 8.2258 4.29943H12.2071C12.5667 4.29943 12.7161 4.75953 12.4253 4.97087L9.20432 7.31102C9.07423 7.40553 9.0198 7.57306 9.06949 7.72599L10.2998 11.5124C10.4109 11.8544 10.0195 12.1387 9.72862 11.9274L6.50768 9.58725C6.37759 9.49274 6.20144 9.49274 6.07135 9.58725L2.85041 11.9274C2.55953 12.1387 2.16815 11.8544 2.27925 11.5124L3.50954 7.72599C3.55923 7.57306 3.5048 7.40553 3.37471 7.31102L0.15377 4.97087C-0.137113 4.75953 0.0123817 4.29943 0.371934 4.29943H4.35324C4.51403 4.29943 4.65654 4.19589 4.70623 4.04296L5.93652 0.25652Z" fill="#FFD800"/>
</svg>
