<svg width="90" height="90" viewBox="0 0 90 90" fill="none" xmlns="http://www.w3.org/2000/svg">
<g clip-path="url(#clip0_0_104)">
<path d="M33.4779 89.9819C31.6179 89.2369 30.9754 87.7831 31.0007 85.7016C31.0726 79.7732 31.0219 73.8448 31.0261 67.9164C31.0261 62.295 33.7357 58.0688 38.635 56.037C43.2342 54.118 47.825 52.181 52.4749 50.2802C52.7125 50.2144 52.9212 50.062 53.0648 49.8493C53.2084 49.6365 53.2778 49.3769 53.2611 49.1152C53.3526 48.429 53.2716 47.729 53.0265 47.0872C52.7814 46.4453 52.3809 45.8846 51.8661 45.4625C50.0315 43.7964 49.0086 41.5072 48.5267 38.9742C48.4928 38.8162 48.459 38.6581 48.4168 38.5227C48.39 38.4592 48.3574 38.3987 48.3195 38.3421C46.8041 38.4113 45.3243 37.8385 44.2022 36.7482C43.1571 35.7228 42.5204 34.3078 42.4236 32.7954C42.3269 31.2831 42.7774 29.7887 43.6823 28.6209C43.9339 28.2664 44.0691 27.8332 44.067 27.3883C43.9909 24.4941 43.8303 21.6044 43.7457 18.7102C43.6696 15.974 44.7137 14.502 47.1824 13.59C47.6067 13.4286 47.9614 13.1075 48.18 12.6869C49.9005 8.62331 53.0117 6.7134 57.0106 6.18061C57.2064 6.13096 57.3997 6.07068 57.5898 6H61.1195L67.2912 7.20555C68.4452 7.43131 69.595 7.71124 70.7575 7.83767C71.9141 7.95813 73.0761 7.67282 74.0674 7.02494C74.3106 6.85514 74.5872 6.74782 74.8758 6.71138C75.1643 6.67494 75.4568 6.71038 75.7303 6.81492C76.0039 6.91946 76.251 7.09026 76.4524 7.31392C76.6538 7.53758 76.804 7.80803 76.8911 8.10406C78.0492 11.1899 78.3772 14.56 77.838 17.8342C77.5041 19.9564 77.3392 22.1056 77.1067 24.2412C77.0518 24.756 77.056 25.2797 77.0179 25.7945C76.9207 27.0406 76.9841 28.1152 77.7366 29.2982C80.1038 33.0052 77.5802 38.0396 73.3614 38.2924C73.1332 38.2924 72.9049 38.2924 72.6513 38.2924C72.5244 38.8478 72.4272 39.3535 72.2919 39.8456C71.6279 42.3313 70.2715 44.5423 68.4029 46.1849C68.1897 46.3487 68.019 46.5675 67.9066 46.821C67.7942 47.0745 67.7439 47.3544 67.7604 47.6343C67.7984 49.9686 67.7604 49.9641 69.8021 50.7949C74.111 52.5769 78.42 54.3634 82.7289 56.1544C84.8442 57.021 86.6667 58.547 87.9595 60.5342C89.2523 62.5214 89.9558 64.878 89.9785 67.2978C90.0081 69.158 89.9785 71.0183 89.9785 72.874C89.9785 73.8132 89.5093 74.3821 88.7991 74.364C88.089 74.346 87.6958 73.7996 87.6789 72.9011C87.6367 70.5803 87.8015 68.2279 87.5014 65.9478C87.0279 62.3672 85.1046 59.8026 81.9004 58.4571C79.0724 57.2651 76.2317 56.1137 73.4037 54.9172C73.2187 54.8098 73.0059 54.7698 72.7976 54.8032C72.5894 54.8366 72.397 54.9416 72.2497 55.1023C70.6772 56.5427 69.0412 57.9108 67.4772 59.3647C66.6317 60.1593 65.7271 60.5657 64.6365 60.1684C64.3266 60.4784 64.0946 60.8666 63.9616 61.2973C63.8287 61.728 63.7991 62.1875 63.8756 62.6336C64.5012 68.6614 65.0761 74.6936 65.6679 80.7259C65.8877 82.9518 66.0907 85.1778 66.3147 87.4489H78.4425V66.9546C78.4303 66.6535 78.4374 66.3517 78.4636 66.0516C78.4807 65.7744 78.5951 65.5144 78.784 65.3235C78.9729 65.1326 79.2224 65.025 79.4824 65.0221C79.7389 64.9746 80.0027 65.0337 80.2197 65.1873C80.4366 65.341 80.5903 65.5776 80.6491 65.8484C80.7247 66.193 80.756 66.5469 80.7421 66.9005C80.7421 73.4083 80.7421 79.9146 80.7421 86.4195V87.5167H86.4235C87.4295 87.5167 87.6916 87.2503 87.6916 86.1621C87.6916 83.9045 87.6916 81.6244 87.6916 79.3533C87.6916 78.2696 88.1143 77.6781 88.8583 77.6917C89.6023 77.7052 89.9954 78.2922 89.9954 79.3939C89.9954 81.498 89.9278 83.6065 89.9954 85.7151C90.0631 87.8237 89.3867 89.2595 87.5225 90H50.6783C50.1964 89.5485 49.7906 89.0699 50.0696 88.3249C50.3486 87.5799 50.9531 87.5257 51.5998 87.5347C52.6186 87.5347 53.6331 87.5347 54.6857 87.5347C54.9097 85.2275 55.1084 83.0196 55.3367 80.762C55.9285 74.7072 56.5076 68.6478 57.1375 62.593C57.203 62.1574 57.1679 61.7113 57.0353 61.2934C56.9027 60.8756 56.6766 60.4987 56.3766 60.1954C55.2521 60.6154 54.3517 60.1593 53.4767 59.3466C51.9338 57.9243 50.319 56.5698 48.7676 55.1385C48.6116 54.9683 48.4078 54.8573 48.1873 54.8222C47.9668 54.7872 47.7416 54.8301 47.546 54.9443C44.8194 56.1183 42.076 57.229 39.341 58.3758C35.5069 59.9787 33.3384 63.3877 33.3299 67.8125C33.3299 71.5059 33.3299 75.1963 33.3299 78.8837C33.3299 81.3715 33.3299 83.8504 33.3299 86.3427C33.3299 86.9703 33.5159 87.4896 34.1458 87.4986C36.1621 87.5392 38.1743 87.4986 40.2667 87.4986V86.4601C40.2667 79.8981 40.2667 73.3391 40.2667 66.7831C40.254 66.4306 40.2954 66.0782 40.3893 65.7401C40.4653 65.489 40.6245 65.2761 40.8369 65.1414C41.0494 65.0068 41.3006 64.9595 41.5433 65.0086C41.7901 65.0174 42.0257 65.12 42.2079 65.298C42.39 65.476 42.5066 65.7176 42.5367 65.9794C42.5723 66.2788 42.5822 66.581 42.5663 66.8824V87.5121C43.6738 87.5121 44.6799 87.4851 45.7114 87.5121C45.8981 87.5023 46.0842 87.5424 46.2526 87.629C46.4211 87.7156 46.5666 87.8459 46.6758 88.0079C46.7851 88.17 46.8546 88.3586 46.8782 88.5567C46.9017 88.7548 46.8784 88.9561 46.8104 89.1421C46.6516 89.4496 46.4539 89.7322 46.2228 89.9819H33.4779ZM50.5557 30.9417C50.5557 32.6936 50.5557 34.441 50.5557 36.1883C50.5679 36.9258 50.6444 37.6604 50.784 38.3827C51.2867 40.9479 52.6594 43.2241 54.6382 44.7738C56.617 46.3235 59.0622 47.0372 61.5038 46.7779C63.9454 46.5185 66.2111 45.3044 67.8654 43.3689C69.5197 41.4333 70.4459 38.9129 70.4658 36.2922C70.5081 32.6349 70.4658 28.9731 70.4658 25.3113C70.4658 23.7265 69.5696 22.9996 68.1028 23.3247C63.1046 24.4332 57.9465 24.4332 52.9483 23.3247C51.4307 22.9951 50.5684 23.7175 50.5642 25.3655C50.5473 27.2212 50.5515 29.086 50.5557 30.9417ZM74.879 9.45861C74.1773 9.69791 73.5812 9.95528 72.9641 10.1043C70.9646 10.5874 69.0032 10.2352 67.046 9.69791C63.6642 8.76779 60.2825 8.08149 56.812 8.63234C54.0009 9.08385 51.7013 10.4068 50.4712 13.2784C49.8625 14.6872 48.9959 15.6399 47.5586 16.0372C46.4849 16.3352 46.0326 17.0802 46.0242 18.2948C46.0242 19.2249 46.0242 20.155 46.0749 21.0806C46.1552 22.9318 46.2567 24.7785 46.3497 26.6433L48.2477 26.413C48.2477 25.9886 48.2477 25.5868 48.2477 25.1849C48.2942 22.1778 50.4796 20.286 53.24 20.891C58.0368 21.961 62.9889 21.961 67.7858 20.891C70.4954 20.295 72.6935 22.1733 72.7569 25.1307C72.7569 25.5822 72.7569 25.9841 72.7569 26.4221L74.6211 26.6252C74.6211 26.3905 74.6634 26.1737 74.6761 25.966C74.8748 22.8054 75.0143 19.6448 75.623 16.5339C76.0327 14.1487 75.7739 11.6873 74.879 9.45861ZM55.6199 48.2258C55.3494 49.6255 55.4466 50.7497 56.6725 51.4676C57.0752 51.7096 57.4333 52.0278 57.7293 52.4068C58.7142 53.6801 59.9993 53.9149 61.4238 53.7252C61.6429 53.7142 61.8556 53.6426 62.041 53.5175C63.0936 52.6145 64.1292 51.6708 65.1564 50.7272C65.3145 50.6017 65.4267 50.4213 65.4735 50.2169C65.5115 49.5984 65.4735 48.9753 65.4735 48.2258C62.3173 49.6129 58.7761 49.6129 55.6199 48.2258ZM63.994 87.4399C63.9437 87.1081 63.9127 86.7734 63.901 86.4375C63.919 85.9904 63.8386 85.5451 63.666 85.1373C63.4935 84.7295 63.2337 84.3706 62.9076 84.0897C61.6901 82.8931 60.5361 81.6108 59.3779 80.3376C58.9213 79.8364 58.5324 79.2765 58.1097 78.7437L57.8688 78.9198C57.7532 79.6945 57.677 80.4752 57.6405 81.2587C57.641 81.6722 57.7788 82.0722 58.0294 82.3874C59.3863 83.9045 60.8193 85.3494 62.1678 86.8755C62.3842 87.1543 62.674 87.3571 62.9996 87.4578C63.3252 87.5584 63.6717 87.5522 63.994 87.4399ZM72.8246 29.0002V35.8C73.2758 35.8395 73.7297 35.7771 74.1568 35.6168C74.5839 35.4565 74.9746 35.202 75.3036 34.8698C75.6325 34.5376 75.8923 34.1352 76.0661 33.6887C76.2398 33.2422 76.3236 32.7616 76.312 32.2782C76.3015 31.8123 76.2008 31.3537 76.0163 30.9313C75.8318 30.509 75.5674 30.132 75.2399 29.8241C74.9123 29.5162 74.5286 29.284 74.1129 29.1423C73.6972 29.0005 73.2586 28.9521 72.8246 29.0002ZM48.2012 35.8V29.0273C47.7671 28.9759 47.3278 29.0213 46.9109 29.1605C46.4941 29.2997 46.1088 29.5298 45.7795 29.8362C45.4501 30.1425 45.1839 30.5186 44.9975 30.9405C44.8112 31.3623 44.7088 31.8209 44.6968 32.2873C44.6376 34.2965 46.1679 35.8768 48.2012 35.8ZM57.1924 55.1114C56.1863 54.2083 55.2141 53.3414 54.2334 52.4971C54.1551 52.4421 54.0665 52.4059 53.9738 52.3911C53.8811 52.3763 53.7865 52.3832 53.6965 52.4113C52.7243 52.7906 51.7647 53.206 50.7037 53.6485C52.3311 55.0933 53.8698 56.4614 55.4593 57.8656L57.1924 55.1114ZM65.5792 57.8747L70.3094 53.6846C69.2272 53.2331 68.2888 52.8267 67.3504 52.4565C67.2597 52.4243 67.1635 52.4136 67.0686 52.4253C66.9736 52.437 66.8823 52.4708 66.8008 52.5242C65.8074 53.364 64.8394 54.2354 63.8418 55.1159C64.4167 56.0641 64.9704 56.9355 65.5792 57.8747ZM58.5874 72.7747C58.5401 72.8238 58.4963 72.8766 58.4563 72.9327C58.0632 74.5807 58.1816 75.9714 59.6019 77.1679C60.925 78.2877 62.0283 79.7054 63.381 81.1548C63.2753 79.9267 63.195 78.9379 63.0936 77.949C63.0778 77.7341 63.0012 77.5293 62.8738 77.3621C61.4492 75.8269 60.0204 74.3098 58.5747 72.7702L58.5874 72.7747ZM60.4558 59.9336C61.6775 60.3174 62.3623 59.6852 62.7977 58.579C62.8611 58.421 62.9583 58.1817 62.8949 58.0733C62.6026 57.4369 62.2205 56.8521 61.762 56.3395C61.4872 56.0866 60.8912 56.1995 60.4389 56.195C59.9866 56.1905 59.492 56.1047 59.2722 56.335C58.7719 56.8362 58.387 57.4544 58.1478 58.141C58.0463 58.4526 58.5367 58.9583 58.7269 59.3963C59.1116 60.3354 59.8767 59.8026 60.4431 59.9291L60.4558 59.9336ZM59.0693 66.4173C58.9546 67.2177 58.8798 68.0241 58.8452 68.8329C58.8492 69.2445 58.9867 69.6418 59.2341 69.9572C60.1684 71.0363 61.166 72.0568 62.1467 73.0953C62.3064 73.2556 62.4743 73.4063 62.6497 73.5468C62.544 72.5038 62.4595 71.6098 62.358 70.7203C62.32 70.3726 62.358 69.9121 62.1763 69.7044C61.204 68.5846 60.1641 67.5506 59.0693 66.4173ZM59.3398 62.4575C59.6611 64.0469 61.0307 64.5842 61.8761 65.6181L61.5549 62.4575H59.3398ZM59.1411 87.4806L57.2135 85.3629L57.0191 87.4806H59.1411Z" fill="#322C2D"/>
<path d="M60.9875 44.9198C59.4378 44.9082 57.9287 44.4232 56.6625 43.5298C56.5076 43.4364 56.3728 43.3133 56.2658 43.1675C56.1587 43.0218 56.0816 42.8563 56.0389 42.6806C55.9961 42.5049 55.9885 42.3225 56.0166 42.1438C56.0447 41.9652 56.1079 41.7939 56.2025 41.6398C56.2956 41.4834 56.4203 41.3481 56.5687 41.2426C56.717 41.137 56.8857 41.0636 57.064 41.0269C57.2423 40.9902 57.4263 40.9911 57.6042 41.0294C57.7822 41.0678 57.9502 41.1429 58.0975 41.2498C58.9365 41.858 59.9462 42.1856 60.9825 42.1856C62.0188 42.1856 63.0285 41.858 63.8675 41.2498C64.0108 41.149 64.1731 41.0785 64.3445 41.0425C64.5159 41.0065 64.6928 41.0058 64.8645 41.0404C65.0362 41.0751 65.199 41.1443 65.3431 41.2439C65.4872 41.3435 65.6095 41.4714 65.7025 41.6198C65.8033 41.77 65.8732 41.9389 65.9082 42.1164C65.9431 42.2939 65.9424 42.4766 65.9061 42.6539C65.8698 42.8312 65.7987 42.9994 65.6968 43.1489C65.5948 43.2984 65.4642 43.4262 65.3125 43.5248C64.0461 44.4186 62.5374 44.9052 60.9875 44.9198Z" fill="#322C2D"/>
<path fill-rule="evenodd" clip-rule="evenodd" d="M35.2523 88.837H3.30069C1.77239 88.837 1.09669 88.1555 1.09669 86.6069V78.6696V64.9729C1.10525 64.7313 1.02476 64.495 0.870487 64.3088C0.639363 64.1044 0.455942 63.8517 0.333175 63.5685C0.210408 63.2854 0.151287 62.9788 0.159987 62.6703V56.5281C0.159987 55.0781 0.600787 54.5329 2.01889 54.1646C12.8204 51.3574 20.7075 44.9562 25.68 34.9608C26.1092 34.0908 26.637 33.447 27.5708 33.1628H28.4408C29.4558 33.4528 29.9517 34.2097 30.4012 35.1058C35.0626 44.3725 42.2427 50.5266 51.9416 53.5682C51.189 53.8433 50.128 54.1372 48.8901 54.4802C48.8734 54.4849 48.8566 54.4895 48.8399 54.4941C41.8245 51.8191 36.0833 47.2896 31.6163 40.9058C31.2334 40.3718 30.886 39.82 30.5163 39.233L30.5163 39.233C30.326 38.9307 30.1297 38.6191 29.9198 38.2958C29.937 38.4632 29.967 38.629 30.0097 38.7917C30.2573 39.4537 30.4957 40.1197 30.734 40.7855L30.734 40.7855C31.2996 42.3655 31.8645 43.9438 32.5501 45.4617C33.9189 48.5125 35.8039 51.2327 38.4487 53.3497C39.8897 54.5088 41.4595 55.4388 43.0919 56.2623C42.8952 56.3337 42.6987 56.4067 42.5025 56.4814C41.9234 56.7019 41.3719 56.9341 40.8479 57.1809C37.5539 55.3125 34.7633 52.8756 32.7009 49.6C30.8609 46.6268 29.429 43.4197 28.4437 40.0648C28.3575 39.7839 28.2738 39.503 28.1785 39.1831L28.1783 39.1827C28.1261 39.0073 28.0703 38.8201 28.0087 38.6148C27.9598 38.7602 27.9229 38.8737 27.8918 38.9695L27.8918 38.9697C27.8546 39.084 27.8256 39.1732 27.7941 39.2615C27.5694 39.8859 27.3537 40.5148 27.1381 41.1437C26.6605 42.5361 26.1828 43.9288 25.6075 45.2732C23.3774 50.5048 19.9235 54.6953 14.805 57.3778L13.2999 58.1753H39.0186C38.1107 58.7479 37.3118 59.392 36.6217 60.1299H2.04789V62.824H34.7913C34.5102 63.4125 34.2697 64.045 34.0696 64.7264H29.5573C30.5705 66.2089 31.6752 67.4028 33.5123 67.4884C33.4306 68.1212 33.3594 68.7423 33.2982 69.3518C30.9219 69.2438 29.3378 67.6887 28 65.7907C26.6109 67.7772 24.9724 69.3461 22.4349 69.3461C19.8974 69.3461 18.2415 67.7511 16.864 65.7849C15.6605 67.5249 14.254 68.9372 12.1138 69.2794C9.97359 69.6216 8.23069 68.6327 6.70819 67.0899V86.9549H34.6268C34.8293 87.6306 35.04 88.258 35.2523 88.837ZM55.84 55.9394V55.6726C55.5462 54.8616 54.9636 54.4607 54.1922 54.215L55.84 55.9394ZM33.0853 72.0744C32.9463 74.5844 32.9831 76.8768 33.1524 78.9614C33.1421 78.9725 33.1318 78.9835 33.1214 78.9945C32.8428 79.3029 32.5529 79.6041 32.2626 79.9057C31.7339 80.4548 31.2037 81.0055 30.7376 81.6045C30.0829 82.4885 29.4871 83.4147 28.9541 84.3769C28.7192 84.7771 28.493 85.1309 27.9913 85.1251C27.4896 85.1193 27.2489 84.8177 27.072 84.4001C26.4601 82.9501 25.4828 81.7901 24.433 80.6301C23.6256 79.8235 22.8873 78.9504 22.2261 78.0201C21.2227 76.4918 21.2488 74.8156 22.055 73.2032C23.0932 71.1326 25.5611 70.57 27.5273 71.9243C27.8724 72.1621 28.0783 72.2143 28.4553 71.9446C30.0319 70.8436 31.8612 71.0157 33.0853 72.0744ZM26.1498 38.3567C26.0772 38.385 26.0064 38.4179 25.9381 38.4553C25.9113 38.4971 25.8848 38.5375 25.8584 38.5777L25.8583 38.5778L25.8583 38.5778C25.7875 38.6857 25.7178 38.7918 25.6481 38.9164C21.8633 45.265 16.2648 50.3353 9.57339 53.4744C7.29797 54.5453 4.92184 55.3875 2.47999 55.9887C2.30889 56.0322 2.05369 56.2004 2.04499 56.3251C2.01107 56.7703 2.01589 57.2171 2.02094 57.6846C2.0228 57.8567 2.02469 58.0315 2.02469 58.2101C2.37445 58.2101 2.71858 58.2012 3.0582 58.1925C3.78019 58.1738 4.48183 58.1556 5.17409 58.2246C7.66809 58.4769 9.90109 57.7722 12.1022 56.6818C15.6083 54.9418 18.7896 52.8509 21.0661 49.5739C22.6389 47.2914 23.9109 44.8157 24.8506 42.2079C25.1649 41.344 25.4523 40.4702 25.7524 39.5577L25.7524 39.5576L25.7526 39.5573C25.8816 39.165 26.0129 38.7656 26.1498 38.3567ZM4.76809 86.9694V64.7409H3.00199V86.9694H4.76809ZM7.38099 64.7264C7.96099 66.1764 9.84019 67.5017 11.3047 67.4988C12.7692 67.4959 14.6687 66.159 15.2197 64.7264H7.38099ZM26.4514 64.7264H18.43C19.4392 66.1967 20.5441 67.4321 22.3798 67.464C24.2648 67.5133 25.4045 66.2576 26.4514 64.7438V64.7264ZM28.0319 81.9525C28.2134 81.7385 28.3981 81.5193 28.5858 81.2967C29.0999 80.6867 29.6356 80.0512 30.1837 79.4266C30.4362 79.1413 30.7014 78.8643 30.9668 78.5872C31.2408 78.301 31.515 78.0146 31.7758 77.7185C32.2947 77.1744 32.5978 76.4601 32.6284 75.7088C32.6429 74.7112 32.4312 73.7803 31.4684 73.2351C30.8275 72.8697 29.8299 73.1191 29.1252 73.7629C28.0179 74.7699 28.0173 74.7694 26.8748 73.7783L26.8371 73.7455C26.2252 73.2148 25.5147 72.8755 24.6911 73.1655C23.8675 73.4555 23.5804 74.1486 23.4209 74.9258C23.3302 75.3431 23.3309 75.7751 23.423 76.1921C23.5151 76.6091 23.6965 77.0013 23.9545 77.3415C24.2523 77.7478 24.5875 78.1248 24.9216 78.5005L24.9637 78.5479C25.4822 79.1246 25.9999 79.6984 26.5143 80.2685L26.5155 80.2698C27.025 80.8345 27.5313 81.3957 28.0319 81.9525Z" fill="#322C2D"/>
</g>
<defs>
<clipPath id="clip0_0_104">
<rect width="90" height="90" fill="white"/>
</clipPath>
</defs>
</svg>
