<svg width="15" height="10" viewBox="0 0 15 10" fill="none" xmlns="http://www.w3.org/2000/svg">
<path fill-rule="evenodd" clip-rule="evenodd" d="M0.25424 9.97297L0 6.5731L0.25424 6.42198C0.25424 6.42198 6.77968 4.1554 10 2.64435C13.1356 1.13329 13.7288 0.528878 13.7288 0.528878L14.2373 0L15 3.47543L14.8305 3.55099C14.7458 3.62654 10.8475 5.89312 8.05086 7.25307C5.1695 8.68857 0.847462 9.7463 0.67797 9.82185L0.25424 9.97297ZM0.762721 7.02641L0.93221 9.14188C2.11865 8.76412 5.42374 7.85749 7.71188 6.7242C10.1695 5.59091 13.3899 3.70209 14.1526 3.17322L13.8136 1.35995C13.3051 1.73771 12.2882 2.34214 10.4238 3.24877C7.45764 4.60872 2.03391 6.57309 0.762721 7.02641Z" fill="#012C20"/>
</svg>
