<svg width="90" height="90" viewBox="0 0 90 90" fill="none" xmlns="http://www.w3.org/2000/svg">
<g clip-path="url(#clip0_0_138)">
<path d="M91.56 87.984C90.9552 89.256 89.9568 89.7216 88.5504 89.6544C86.7072 89.568 84.8544 89.6544 83.0064 89.6304C81.9072 89.6304 81.3216 89.1504 81.3072 88.3056C81.2928 87.4608 81.9168 86.9136 83.0496 86.9088C84.9264 86.9088 86.8032 86.9088 88.7568 86.9088V84.0288H1.2336V86.9088H75.24C75.5725 86.8871 75.906 86.8871 76.2384 86.9088C76.4132 86.9227 76.5836 86.971 76.7396 87.0511C76.8957 87.1311 77.0344 87.2412 77.1477 87.375C77.261 87.5089 77.3467 87.6638 77.3999 87.831C77.4531 87.9981 77.4727 88.1741 77.4576 88.3488C77.4557 88.5169 77.4207 88.6829 77.3545 88.8374C77.2883 88.9919 77.1922 89.1319 77.0718 89.2491C76.9514 89.3664 76.809 89.4588 76.6528 89.5209C76.4966 89.583 76.3297 89.6137 76.1616 89.6112C75.8928 89.6112 75.6192 89.6112 75.3456 89.6112H1.488C-0.830397 89.64 -1.56 88.9152 -1.56 86.6064C-1.56 85.6464 -1.56 84.6864 -1.56 83.6976C-1.56 82.176 -0.647997 81.264 0.868803 81.2448C2.5296 81.2448 4.1856 81.2448 5.8896 81.2448V78.3888C5.712 78.3312 5.5248 78.2544 5.328 78.2064C4.59091 78.0664 3.92876 77.666 3.46256 77.0781C2.99635 76.4903 2.7572 75.7544 2.7888 75.0048C2.7888 73.6992 2.7888 72.3984 2.7648 71.0928C2.7648 71.0928 2.7648 71.04 2.6976 70.9488C-0.110397 70.6992 0.235202 68.5488 0.268803 66.576C0.0144025 66.552 -0.163198 66.552 -0.331198 66.5184C-0.681295 66.4819 -1.00387 66.3119 -1.23183 66.0437C-1.4598 65.7755 -1.57562 65.4298 -1.5552 65.0784C-1.54545 64.9005 -1.50043 64.7263 -1.42276 64.566C-1.34508 64.4057 -1.23631 64.2624 -1.10277 64.1445C-0.969219 64.0265 -0.813562 63.9364 -0.644846 63.8791C-0.47613 63.8219 -0.297722 63.7988 -0.119998 63.8112C1.2144 63.7824 2.5488 63.7824 3.8832 63.8112C4.3632 63.8112 4.5456 63.6528 4.7136 63.2064C7.0608 57.0288 11.4624 53.3904 18.048 52.4736C18.192 52.4736 18.336 52.4016 18.6048 52.3344C18.6048 51.7152 18.6048 51.0912 18.6048 50.4672C18.648 48.7584 19.704 47.5872 21.4176 47.52C23.9616 47.4464 26.5072 47.4464 29.0544 47.52C30.7872 47.5632 31.8816 48.792 31.9344 50.5296C31.9344 51.1056 31.9344 51.6768 31.9344 52.3728C35.2958 52.6891 38.4791 54.0295 41.0544 56.2128C41.0544 54.912 41.0544 53.8368 41.0544 52.7616C40.9872 51.7539 41.2522 50.752 41.8087 49.9093C42.3653 49.0667 43.1828 48.4297 44.136 48.096C47.232 46.8 50.3088 45.456 53.3952 44.1264C53.7987 43.967 54.1534 43.7047 54.4238 43.3655C54.6943 43.0263 54.8712 42.6222 54.9367 42.1933C55.0023 41.7645 54.9543 41.326 54.7975 40.9215C54.6407 40.517 54.3806 40.1606 54.0432 39.888C52.3278 38.424 51.0546 36.5108 50.3664 34.3632C50.1792 33.792 49.9872 33.5424 49.3296 33.528C46.8 33.4704 45.3936 31.9632 45.384 29.424C45.384 28.6992 45.384 27.984 45.384 27.2448C45.384 24.9264 46.7856 23.4576 49.1184 23.28C49.296 23.28 49.4688 23.2416 49.7328 23.2128C49.7328 21.4992 49.7328 19.8096 49.7328 18.12C49.6757 17.862 49.5316 17.6316 49.3248 17.4672C46.536 14.8272 45.8544 11.1408 47.5824 7.96319C49.3104 4.78559 52.8624 3.31199 56.5872 4.27199C56.6703 4.2774 56.7537 4.2774 56.8368 4.27199C58.3392 1.79999 60.5616 0.359986 63.5664 0.359986C64.9133 0.330184 66.2432 0.664524 67.4158 1.32772C68.5884 1.99092 69.5603 2.95837 70.2288 4.12799C71.6928 4.12799 73.1088 3.92159 74.4336 4.17119C75.8038 4.39428 77.0789 5.01286 78.1022 5.95091C79.1255 6.88895 79.8524 8.10556 80.1936 9.45119C80.6301 10.7879 80.6744 12.2216 80.3214 13.5827C79.9683 14.9437 79.2327 16.1752 78.2016 17.1312C77.994 17.3211 77.8316 17.555 77.7261 17.8157C77.6206 18.0765 77.5748 18.3576 77.592 18.6384C77.6256 20.1504 77.592 21.6624 77.592 23.1936C78.024 23.2608 78.3792 23.304 78.7296 23.376C79.5597 23.516 80.3145 23.942 80.8634 24.5803C81.4122 25.2185 81.7203 26.0287 81.7344 26.8704C81.7632 27.7776 81.7344 28.6848 81.7344 29.5968C81.7104 31.9344 80.3424 33.4032 77.9952 33.5184C77.7478 33.4937 77.5005 33.566 77.3054 33.72C77.1102 33.874 76.9824 34.0977 76.9488 34.344C76.2271 36.6094 74.8549 38.6126 73.0032 40.104C72.6963 40.361 72.4608 40.6928 72.3196 41.0674C72.1784 41.442 72.1361 41.8467 72.1969 42.2423C72.2577 42.638 72.4195 43.0113 72.6667 43.3262C72.9139 43.6411 73.2381 43.887 73.608 44.04C76.7664 45.4224 79.9328 46.7888 83.1072 48.1392C85.1136 48.9936 86.1216 50.4768 86.1072 52.6608C86.1072 53.784 86.1072 54.9024 86.1072 56.0208C86.1072 57.0144 85.5792 57.6144 84.7632 57.6288C83.9472 57.6432 83.4 57 83.4 56.04C83.4 54.9792 83.352 53.9136 83.4 52.8576C83.4641 52.3591 83.3498 51.854 83.0776 51.4315C82.8053 51.009 82.3925 50.6964 81.912 50.5488C79.1184 49.3872 76.3728 48.1008 73.5552 46.9968C71.2896 46.1136 69.6432 44.8272 69.5664 42.264C67.8 42.3648 66.5664 43.224 65.4336 44.472C63.3504 46.7184 61.152 48.8496 58.992 51.0192C58.6076 51.3876 58.3021 51.8303 58.0942 52.3205C57.8863 52.8106 57.7802 53.338 57.7824 53.8704C57.7824 62.7792 57.7824 71.6896 57.7824 80.6016C57.7824 80.7792 57.7824 80.952 57.8256 81.1776H66.7392C66.4272 80.136 66.1728 79.1088 67.0128 78.1776C67.104 78.0768 66.912 77.6976 66.8208 77.448C66.4272 76.4592 66.1632 75.4944 66.9216 74.5296C67.032 74.3856 66.9552 74.0496 66.8688 73.8144C66.4752 72.7728 66.1056 71.7504 66.9408 70.728C67.0368 70.6128 66.9936 70.3344 66.9408 70.1568C66.8544 69.8352 66.6864 69.5424 66.5904 69.2208C66.072 67.4736 66.8976 66.3408 68.7264 66.3408C72.3648 66.3408 76.0032 66.3408 79.6368 66.3408H83.4C83.4 65.1792 83.4 64.0704 83.4 62.9568C83.4 61.8432 83.9136 61.2672 84.7488 61.2576C85.584 61.248 86.112 61.8816 86.1216 62.9328C86.1312 63.984 86.1216 65.112 86.1216 66.3408C87.1056 66.3408 88.0656 66.384 89.0016 66.3408C90.1968 66.2736 91.0656 66.6816 91.56 67.7808V68.8704C91.2672 69.72 90.4128 70.5696 91.56 71.4192V72.6912C91.1904 73.5408 90.4848 74.3904 91.56 75.24V76.512C91.1232 77.3616 90.5424 78.2064 91.56 79.056V80.328C91.08 81.1776 90.6336 82.0272 91.56 82.8768V87.984ZM74.8944 21.5424C74.8944 20.2176 74.9328 18.9792 74.8944 17.7408C74.8535 17.3073 74.9295 16.8708 75.1143 16.4766C75.2992 16.0825 75.5862 15.745 75.9456 15.4992C76.9067 14.7485 77.5528 13.6658 77.757 12.4635C77.9612 11.2612 77.709 10.0259 77.0496 8.99999C76.4055 7.97737 75.41 7.22523 74.2503 6.88493C73.0906 6.54463 71.8466 6.6396 70.752 7.15199C69.2688 7.82399 68.808 7.63199 68.1792 6.16799C67.8058 5.25146 67.167 4.46749 66.3447 3.91676C65.5225 3.36603 64.5543 3.07369 63.5647 3.07731C62.575 3.08092 61.609 3.38031 60.7908 3.93703C59.9726 4.49374 59.3395 5.28236 58.9728 6.20159C58.3728 7.64159 57.864 7.82399 56.4576 7.16159C55.3423 6.62147 54.065 6.51903 52.8778 6.87447C51.6906 7.22991 50.6798 8.01741 50.0448 9.08159C49.4063 10.1275 49.1832 11.3748 49.4196 12.5772C49.656 13.7796 50.3347 14.8496 51.3216 15.576C51.7155 15.8237 52.0314 16.1778 52.2327 16.5974C52.434 17.0169 52.5125 17.4849 52.4592 17.9472C52.3968 19.1376 52.4592 20.3472 52.4592 21.5424H74.8944ZM57.648 42.1824C57.12 45.0624 56.5872 45.7152 53.808 46.9104C50.928 48.1488 48.048 49.416 45.1344 50.6304C44.7015 50.7728 44.3296 51.0578 44.0794 51.4387C43.8292 51.8196 43.7155 52.2741 43.7568 52.728C43.7568 54.648 43.7568 56.6064 43.7568 58.5456C43.7354 58.8157 43.7714 59.0872 43.8624 59.3424C44.5968 60.816 45.3648 62.2752 46.1568 63.8112H50.1552C51.3296 63.8112 51.9424 64.2416 51.9936 65.1024C52.0416 65.9184 51.5136 66.4032 50.3904 66.5712C50.3424 66.5712 50.2992 66.6384 50.1984 66.7152C50.1984 68.568 50.5248 70.6896 47.6832 70.9584C47.6832 72.3408 47.6832 73.6704 47.6832 75C47.7033 75.7337 47.4691 76.4518 47.0203 77.0327C46.5716 77.6135 45.9358 78.0214 45.2208 78.1872L44.544 78.3696V81.2016H55.032V80.088C55.032 71.4864 55.032 62.8832 55.032 54.2784C54.9976 53.2771 55.1781 52.28 55.5615 51.3543C55.9449 50.4286 56.5221 49.5958 57.2544 48.912C58.7424 47.496 60.2208 46.0704 61.6416 44.7072C60.6528 42.9936 59.2608 42.3936 57.648 42.1728V42.1824ZM5.52 70.92V74.1792C5.52 75.5376 5.52 75.5424 6.8544 75.5424C9.6432 75.5424 12.432 75.5424 15.2208 75.5424C16.2768 75.5424 16.8336 76.0224 16.8768 76.8192C16.92 77.616 16.344 78.2256 15.3696 78.2592C14.3952 78.2928 13.4496 78.2592 12.4896 78.2592V81.168H37.9296V78.2592H22.6224C22.2602 78.2764 21.8973 78.2474 21.5424 78.1728C21.2511 78.0918 20.9961 77.9139 20.8194 77.6685C20.6428 77.4231 20.5551 77.1249 20.5707 76.8229C20.5864 76.521 20.7045 76.2334 20.9056 76.0075C21.1066 75.7817 21.3787 75.6312 21.6768 75.5808C22.0385 75.5399 22.4026 75.5254 22.7664 75.5376H43.4976C43.7658 75.5792 44.0395 75.5694 44.304 75.5088C44.5584 75.3984 44.928 75.1392 44.9376 74.928C44.9952 73.608 44.9664 72.2832 44.9664 70.9152L5.52 70.92ZM43.08 63.7728C42.9648 63.4512 42.9168 63.2496 42.8256 63.0624C40.4256 58.0416 36.456 55.3008 30.8928 55.0992C27.1968 54.9648 23.496 55.0416 19.8 55.0992C17.9137 55.0907 16.0481 55.4924 14.3324 56.2764C12.6168 57.0605 11.0921 58.2082 9.864 59.64C8.77159 60.8404 7.93971 62.2541 7.4208 63.792L43.08 63.7728ZM52.4496 24.36C52.4496 26.5056 52.4208 28.56 52.4496 30.6C52.4528 32.845 53.2479 35.0169 54.6949 36.7334C56.1418 38.4499 58.1479 39.601 60.36 39.984C62.1304 40.2218 63.9203 40.2797 65.7024 40.1568C68.0695 40.0423 70.3106 39.0562 71.9943 37.3885C73.678 35.7207 74.6854 33.4891 74.8224 31.1232C74.9184 29.0064 74.8608 26.88 74.8656 24.7584C74.8481 24.6147 74.816 24.4731 74.7696 24.336L52.4496 24.36ZM3.0432 68.1024H47.4V66.5712H3.0432V68.1024ZM69.6528 69.1104L69.5088 69.4512C70.0464 69.6864 70.5792 70.1184 71.1216 70.1232C76.3584 70.176 81.5952 70.1232 86.8272 70.1616C87.1666 70.1675 87.4999 70.0702 87.7828 69.8824C88.0656 69.6947 88.2848 69.4255 88.4112 69.1104H69.6528ZM88.416 72.9504H69.5328C69.6929 73.2716 69.9427 73.5396 70.2519 73.7219C70.5612 73.9042 70.9166 73.993 71.2752 73.9776C76.3952 73.952 81.5152 73.952 86.6352 73.9776C87.0026 74.0009 87.3686 73.9137 87.686 73.7273C88.0033 73.5408 88.2576 73.2635 88.416 72.9312V72.9504ZM69.5184 76.7424C69.6841 77.058 69.9344 77.3213 70.2413 77.5027C70.5482 77.6842 70.8996 77.7766 71.256 77.7696C76.4272 77.7472 81.6 77.7472 86.7744 77.7696C87.1174 77.7781 87.4553 77.6858 87.7463 77.5041C88.0372 77.3223 88.2684 77.0591 88.4112 76.7472L69.5184 76.7424ZM21.3552 52.272H29.1168V50.28H21.3552V52.272ZM88.3728 80.7984L88.2624 80.544H69.6624L69.5856 80.7984C69.9056 81.0021 70.2603 81.1453 70.632 81.2208C76.2 81.2496 81.7696 81.2496 87.3408 81.2208C87.708 81.145 88.0579 81.0017 88.3728 80.7984ZM49.6656 26.0784C48.48 25.9488 48.1056 26.256 48.096 27.3504C48.096 28.0752 48.096 28.7904 48.096 29.5248C48.096 30.5856 48.576 30.9312 49.6656 30.6624V26.0784ZM77.6736 30.7344C78.768 30.7344 79.0272 30.5232 79.0464 29.5872C79.0464 28.776 79.0464 27.9648 79.0464 27.1536C79.0464 26.2512 78.6624 25.9824 77.6784 26.112L77.6736 30.7344ZM9.7008 78.2832L8.7408 78.3408V81.2208L9.7008 81.1728V78.2832ZM40.7904 78.3312V81.2448L41.6976 81.1872V78.3312H40.7904Z" fill="#322C2D"/>
<path d="M30.1632 20.52C31.4064 20.52 32.6496 20.52 33.888 20.52C34.5754 20.5442 35.2443 20.2943 35.7475 19.8253C36.2507 19.3564 36.547 18.7067 36.5712 18.0192C36.5954 17.3318 36.3455 16.6629 35.8765 16.1597C35.4075 15.6565 34.7578 15.3602 34.0704 15.336C33.2256 15.2736 32.3712 15.336 31.5264 15.3024C30.5376 15.3024 29.9232 14.7504 29.928 13.9488C29.9328 13.1472 30.5232 12.6048 31.5264 12.5904C32.5249 12.5536 33.5247 12.5696 34.5216 12.6384C35.8739 12.7652 37.1264 13.405 38.0217 14.4265C38.917 15.4479 39.3871 16.7735 39.3355 18.1308C39.2838 19.488 38.7144 20.774 37.7442 21.7246C36.7739 22.6751 35.4765 23.2179 34.1184 23.2416C31.6656 23.2752 29.2128 23.2416 26.76 23.2416C24.8832 23.2416 24.2736 23.8368 24.1872 25.7232C24.1344 26.9232 23.3328 27.6864 22.4448 27.2784C22.2256 27.1692 22.0311 27.0161 21.8734 26.8287C21.7157 26.6413 21.5982 26.4235 21.528 26.1888C21.3911 25.5024 21.4081 24.7942 21.5776 24.1151C21.747 23.4361 22.0649 22.803 22.5083 22.2614C22.9516 21.7198 23.5095 21.2832 24.1417 20.9829C24.774 20.6827 25.4649 20.5262 26.1648 20.5248C27.4992 20.4864 28.8336 20.5248 30.1632 20.5248V20.52Z" fill="#322C2D"/>
<path d="M15.24 22.3008C16.0272 22.3008 16.8144 22.3008 17.6016 22.3008C18.4992 22.3296 19.0416 22.8144 19.0416 23.5968C19.054 23.7878 19.0251 23.9793 18.9567 24.1581C18.8883 24.3369 18.7822 24.4988 18.6454 24.6328C18.5087 24.7668 18.3447 24.8697 18.1645 24.9345C17.9844 24.9992 17.7923 25.0243 17.6016 25.008C16.272 25.0416 14.9376 25.008 13.608 25.008C11.4096 25.0368 9.8928 26.448 9.8688 28.4784C9.8448 30.5088 11.3712 32.0448 13.584 32.0928C14.736 32.0928 15.888 32.0928 17.0352 32.0928C17.9952 32.0928 18.552 32.6208 18.5664 33.4032C18.5752 33.5906 18.5449 33.7779 18.4775 33.953C18.4101 34.1282 18.3069 34.2874 18.1747 34.4206C18.0424 34.5537 17.8839 34.6579 17.7092 34.7265C17.5346 34.7952 17.3475 34.8267 17.16 34.8192C15.5897 34.8882 14.0165 34.8513 12.4512 34.7088C9.144 34.3008 6.936 31.44 7.1424 28.0272C7.26008 26.5045 7.93631 25.0791 9.04116 24.0247C10.146 22.9704 11.6015 22.3615 13.128 22.3152C13.824 22.2912 14.52 22.3152 15.216 22.3152L15.24 22.3008Z" fill="#322C2D"/>
<path d="M24.2832 32.0736C25.1003 32.0706 25.9166 32.1235 26.7264 32.232C28.0854 32.5478 29.2836 33.346 30.0984 34.4786C30.9133 35.6111 31.2893 37.0009 31.1568 38.3898C31.0242 39.7787 30.3921 41.0723 29.3777 42.0302C28.3634 42.9882 27.0358 43.5454 25.6416 43.5984C24.6144 43.5984 23.5824 43.5984 22.5552 43.5984C21.6336 43.56 21.0384 43.08 21 42.2784C20.9616 41.4768 21.5904 40.896 22.5504 40.8768C23.5104 40.8576 24.4704 40.8768 25.4544 40.8768C26.2663 40.8897 27.0501 40.5801 27.6341 40.0159C28.218 39.4517 28.5544 38.679 28.5696 37.8672C28.5703 37.4654 28.4907 37.0676 28.3352 36.6971C28.1798 36.3266 27.9517 35.991 27.6645 35.7101C27.3773 35.4292 27.0368 35.2086 26.663 35.0613C26.2891 34.9141 25.8896 34.8432 25.488 34.8528C24.4896 34.8528 23.4864 34.8528 22.488 34.8528C21.4896 34.8528 20.928 34.2912 20.9424 33.4512C20.9568 32.6112 21.4992 32.1504 22.5456 32.1312H24.2688L24.2832 32.0736Z" fill="#322C2D"/>
<path d="M61.7568 56.1024C61.7506 56.4527 61.6084 56.7868 61.3602 57.0341C61.1121 57.2813 60.7775 57.4223 60.4272 57.4272C60.0669 57.4272 59.7214 57.2841 59.4667 57.0294C59.2119 56.7746 59.0688 56.4291 59.0688 56.0688C59.0688 55.7086 59.2119 55.3631 59.4667 55.1083C59.7214 54.8536 60.0669 54.7104 60.4272 54.7104C60.6064 54.7129 60.7833 54.7511 60.9476 54.8227C61.1119 54.8943 61.2603 54.9979 61.3841 55.1275C61.5078 55.2571 61.6046 55.4101 61.6686 55.5774C61.7326 55.7448 61.7626 55.9233 61.7568 56.1024Z" fill="#322C2D"/>
<path d="M67.4544 54.7104C67.639 54.7045 67.8228 54.7363 67.9946 54.8039C68.1665 54.8715 68.3228 54.9734 68.4539 55.1034C68.5851 55.2334 68.6883 55.3887 68.7574 55.56C68.8265 55.7312 68.8599 55.9148 68.8557 56.0994C68.8514 56.284 68.8096 56.4658 68.7327 56.6337C68.6558 56.8016 68.5455 56.952 68.4085 57.0758C68.2715 57.1997 68.1107 57.2943 67.936 57.3538C67.7612 57.4134 67.5761 57.4368 67.392 57.4224C67.0457 57.3954 66.7228 57.2367 66.4899 56.979C66.257 56.7213 66.1316 56.3842 66.1396 56.0369C66.1476 55.6896 66.2883 55.3585 66.5329 55.1118C66.7774 54.8651 67.1072 54.7215 67.4544 54.7104Z" fill="#322C2D"/>
<path d="M67.4496 62.5009C67.7999 62.5045 68.135 62.6443 68.3841 62.8907C68.6331 63.137 68.7765 63.4706 68.784 63.8209C68.7766 64.186 68.6279 64.5341 68.3692 64.7919C68.1105 65.0497 67.762 65.1971 67.3968 65.2033C67.215 65.1978 67.0361 65.1559 66.8708 65.08C66.7055 65.0041 66.5571 64.8958 66.4345 64.7616C66.3118 64.6273 66.2174 64.4697 66.1568 64.2982C66.0961 64.1267 66.0706 63.9448 66.0816 63.7633C66.0884 63.5905 66.1292 63.4208 66.2016 63.2638C66.2741 63.1068 66.3768 62.9657 66.5038 62.8484C66.6309 62.7312 66.7798 62.6401 66.9421 62.5805C67.1044 62.5208 67.2768 62.4938 67.4496 62.5009Z" fill="#322C2D"/>
<path d="M61.7568 63.8688C61.7495 64.2188 61.6079 64.5526 61.3613 64.801C61.1147 65.0494 60.7819 65.1934 60.432 65.2032C60.0661 65.1945 59.7178 65.044 59.4608 64.7833C59.2037 64.5227 59.058 64.1724 59.0544 63.8064C59.0611 63.6254 59.1039 63.4476 59.1804 63.2834C59.2568 63.1192 59.3653 62.972 59.4994 62.8503C59.6336 62.7287 59.7908 62.6351 59.9616 62.5751C60.1325 62.515 60.3136 62.4898 60.4944 62.5008C60.6672 62.5076 60.8369 62.5484 60.9939 62.6208C61.1508 62.6933 61.292 62.796 61.4092 62.923C61.5265 63.0501 61.6175 63.199 61.6772 63.3613C61.7368 63.5236 61.7639 63.696 61.7568 63.8688Z" fill="#322C2D"/>
<path d="M61.7568 79.368C61.7613 79.5416 61.7313 79.7143 61.6687 79.8761C61.6061 80.038 61.5121 80.1859 61.3921 80.3113C61.2721 80.4367 61.1284 80.5371 60.9694 80.6067C60.8104 80.6763 60.6391 80.7137 60.4656 80.7168C60.2844 80.7239 60.1037 80.6946 59.934 80.6307C59.7643 80.5668 59.6091 80.4696 59.4776 80.3448C59.3461 80.22 59.2409 80.0701 59.1682 79.904C59.0955 79.7379 59.0568 79.5589 59.0544 79.3776C59.0656 79.0126 59.2179 78.666 59.4792 78.4109C59.7406 78.1558 60.0908 78.012 60.456 78.0096C60.8058 78.0257 61.136 78.1757 61.3782 78.4286C61.6204 78.6815 61.7559 79.0179 61.7568 79.368Z" fill="#322C2D"/>
<path d="M59.0544 71.5487C59.0666 71.3681 59.1143 71.1917 59.1947 71.0295C59.2751 70.8673 59.3867 70.7225 59.5232 70.6035C59.6596 70.4845 59.8181 70.3935 59.9897 70.3358C60.1613 70.2781 60.3426 70.2548 60.5232 70.2671C60.8777 70.2952 61.2066 70.4629 61.4375 70.7334C61.6684 71.0039 61.7824 71.355 61.7544 71.7096C61.7264 72.0641 61.5587 72.393 61.2882 72.6239C61.0177 72.8548 60.6665 72.9688 60.312 72.9408C59.964 72.9138 59.6396 72.7544 59.4057 72.4955C59.1717 72.2365 59.046 71.8977 59.0544 71.5487Z" fill="#322C2D"/>
<path d="M63.6432 38.184C61.7834 38.2228 59.9749 37.5732 58.5648 36.36C57.7824 35.688 57.648 34.8576 58.1904 34.2288C58.7328 33.6 59.5056 33.6288 60.2832 34.2288C62.424 35.9184 64.8 35.928 66.9264 34.2624C67.7664 33.6096 68.544 33.6096 69.0768 34.2624C69.6096 34.9152 69.456 35.7024 68.6448 36.3792C67.2516 37.5674 65.4741 38.2088 63.6432 38.184Z" fill="#322C2D"/>
</g>
<defs>
<clipPath id="clip0_0_138">
<rect width="90" height="90" fill="white"/>
</clipPath>
</defs>
</svg>
