<svg width="30" height="30" viewBox="0 0 30 30" fill="none" xmlns="http://www.w3.org/2000/svg">
<rect x="1.875" y="0.9375" width="27.1875" height="27.1875" rx="2" fill="#012C20"/>
<path d="M23.1765 5.92584C23.7187 6.2316 24.1181 6.74168 24.2869 7.3439C24.4557 7.94612 24.38 8.59118 24.0765 9.13723L16.3689 22.9955C16.1737 23.3465 15.9029 23.6492 15.5765 23.8813C15.25 24.1133 14.8761 24.2689 14.4822 24.3366C14.0883 24.4043 13.6843 24.3823 13.2999 24.2724C12.9155 24.1625 12.5604 23.9674 12.2606 23.7014L6.41925 18.5206C5.95287 18.1068 5.66885 17.5234 5.62966 16.8988C5.59048 16.2741 5.79935 15.6594 6.21032 15.1898C6.62129 14.7203 7.2007 14.4343 7.82108 14.3948C8.44146 14.3554 9.05199 14.5657 9.51837 14.9795L13.4934 18.5057L19.9863 6.83201C20.1367 6.5616 20.3384 6.32365 20.5802 6.13176C20.8219 5.93987 21.0987 5.7978 21.395 5.71365C21.6912 5.6295 22.001 5.60493 22.3067 5.64134C22.6124 5.67775 22.9079 5.77442 23.1765 5.92584Z" fill="#FBFAFA"/>
</svg>
