<svg width="22" height="33" viewBox="0 0 22 33" fill="none" xmlns="http://www.w3.org/2000/svg">
<path d="M0 27.1104C0 27.1104 5.62748 16.4947 5.70904 12.7864C5.87216 9.07821 5.70904 1.22549 12.3968 0.134835C19.0845 -0.95582 20.9603 4.86101 21.2866 7.11503C21.6944 9.36905 22.2653 15.6221 21.8575 15.6949C21.3681 15.7676 19.9816 14.8223 19.9816 14.8223C19.9816 14.8223 20.2263 18.7487 18.3505 19.9121C16.4747 21.1481 14.1095 20.6392 14.1095 20.6392C14.1095 20.6392 11.6627 25.947 11.989 27.5466C12.3152 29.219 14.2726 32.9999 14.2726 32.9999C14.2726 32.9999 1.38648 33.1453 0 27.1104Z" fill="#FFB68E"/>
</svg>
