<svg width="65" height="44" viewBox="0 0 65 44" fill="none" xmlns="http://www.w3.org/2000/svg">
<path d="M0 38.3751C0 38.3751 8.01972 37.0619 12.6842 32.6845C19.8038 25.9725 23.4045 24.1486 22.3406 22.9813C21.1131 21.7411 20.0493 18.8958 21.686 19.5524C23.3226 20.209 27.578 23.1272 27.4962 21.7411C27.4143 20.4278 22.9135 15.6857 25.2867 16.6341C27.578 17.5096 31.1787 20.2819 30.9332 19.1146C30.6059 17.9473 28.2327 13.0592 30.7695 15.175C33.3882 17.2178 40.7533 13.351 46.809 11.3083C52.9465 9.26548 64.5669 0 64.5669 0C64.5669 0 66.1218 8.24409 63.3394 9.26548C54.9105 12.3297 37.2344 17.5825 31.5879 20.7926C25.8595 24.0027 6.13754 43.4092 6.13754 43.4092L0 38.3751Z" fill="#012C20"/>
</svg>
