<svg width="90" height="90" viewBox="0 0 90 90" fill="none" xmlns="http://www.w3.org/2000/svg">
<g clip-path="url(#clip0_0_128)">
<path d="M89 89.3427C88.4935 90.5837 87.58 90.999 86.3303 90.994C74.4114 90.964 62.4925 90.964 50.5735 90.994C48.5997 90.994 46.9997 90.5287 46.1619 88.3369C45.5655 89.0525 45.0448 89.688 44.5099 90.3035C43.8567 91.0591 43.1562 91.1742 42.5597 90.6438C41.9633 90.1133 41.9349 89.3027 42.5929 88.4971C43.6058 87.2561 44.6472 86.0451 45.6318 84.7891C45.8258 84.4742 45.9549 84.1196 46.0104 83.7483C46.0247 83.5368 46.0247 83.3244 46.0104 83.1128C46.1954 81.7535 46.1232 80.3688 45.7982 79.0391C45.4732 77.7095 44.9018 76.4612 44.1171 75.3667C43.4544 74.426 43.6106 73.9106 44.4484 73.0799C45.9726 71.5787 47.5299 70.0776 49.021 68.5463C49.1648 68.3801 49.2757 68.1851 49.3472 67.9728C49.4188 67.7606 49.4494 67.5353 49.4375 67.3104C49.1819 65.2688 48.8663 63.2388 48.4908 61.2206C48.4337 61.0178 48.3368 60.83 48.2062 60.6696C48.0757 60.5092 47.9146 60.3798 47.7334 60.2898C46.2708 59.6093 44.7703 59.0088 43.2792 58.3933C42.2047 57.953 41.7124 58.2532 41.5752 59.4692C41.004 64.7 40.4265 69.9308 39.8427 75.1616C39.3126 79.942 38.7856 84.7208 38.2617 89.4979C38.1529 90.4686 37.5706 91.0391 36.8417 90.964C36.1127 90.889 35.611 90.2434 35.7151 89.2477C36.1317 85.3096 36.5813 81.3715 37.0168 77.4334C37.1115 76.5677 37.1967 75.702 37.3056 74.6912C31.8715 77.3483 26.5274 77.3683 21.0697 74.6912C21.2164 76.1123 21.3395 77.3933 21.4815 78.6693C21.8555 82.0019 22.2436 85.3396 22.6223 88.6772C22.788 90.1334 22.4519 90.8539 21.562 90.969C20.6721 91.0841 20.2129 90.4386 20.0567 88.9975C19.1574 81.0145 18.258 73.0466 17.3586 65.0936C17.1598 63.3222 16.9658 61.5508 16.7859 59.7744C16.6297 58.1982 16.1989 57.903 14.8357 58.4734C13.4724 59.0439 11.9956 59.6243 10.6229 60.2848C10.4317 60.3839 10.2622 60.5241 10.1253 60.6965C9.98837 60.8688 9.88699 61.0695 9.82766 61.2856C9.45844 63.2872 9.20284 65.2888 8.88096 67.2904C8.82781 67.5383 8.84429 67.7973 8.92837 68.0356C9.01245 68.2738 9.16049 68.4809 9.35431 68.6314C10.9069 70.1326 12.4311 71.6338 13.9553 73.135C14.7458 73.9156 14.812 74.381 14.2771 75.3667C13.1979 77.3683 12.1329 79.3699 10.9968 81.3314C10.9063 81.452 10.8391 81.5902 10.7991 81.7382C10.7591 81.8862 10.7472 82.0411 10.7639 82.194C10.7806 82.3469 10.8256 82.4948 10.8965 82.6293C10.9673 82.7638 11.0625 82.8822 11.1767 82.9777C12.7198 84.7691 14.2109 86.6106 15.7161 88.437C16.4261 89.2977 16.4545 90.0883 15.8061 90.6588C15.1576 91.2292 14.4901 91.0791 13.7991 90.2484C12.1676 88.2969 10.5456 86.337 8.93303 84.3688C7.88693 83.0978 7.78279 81.8418 8.58275 80.3657C9.59572 78.4742 10.6371 76.5977 11.7021 74.6462C10.3436 73.3151 9.04663 71.949 7.65972 70.6981C7.07792 70.224 6.64477 69.5755 6.41679 68.8373C6.18881 68.0991 6.17657 67.3054 6.38168 66.5598C6.54261 65.8342 6.61362 65.0836 6.73196 64.298C4.96636 64.9135 3.60785 67.1152 3.58892 69.352C3.56052 71.8039 3.58892 74.2609 3.58892 76.7128C3.58892 77.8237 2.75582 78.5392 1.918 78.1189C1.70919 78.0121 1.5251 77.8581 1.37871 77.6679C1.23231 77.4777 1.12717 77.2559 1.0707 77.018C1.03283 74.0557 0.881361 71.0633 1.18904 68.131C1.55352 64.7233 3.58418 62.4566 6.62782 61.2806C6.83355 61.2403 7.02084 61.1291 7.16044 60.9643C7.30003 60.7995 7.38405 60.5905 7.39938 60.3699C7.47786 59.8115 7.69991 59.2865 8.04131 58.8524C8.38271 58.4182 8.83035 58.0916 9.33537 57.908C10.9542 57.2274 12.5731 56.5369 14.1967 55.8614C16.2794 54.9907 17.7515 55.5461 19.1053 57.7428C19.9715 57.5627 20.5963 57.0073 20.62 56.0815C20.691 53.5495 20.62 51.0125 20.62 48.2754C18.6603 48.7758 16.7812 49.2261 14.8972 49.6715C14.2707 49.8785 13.6216 49.9995 12.966 50.0318C12.1771 49.9985 11.429 49.6527 10.8704 49.0631C10.3117 48.4734 9.98339 47.6831 9.95073 46.8493C9.25964 39.3784 8.41234 31.9175 7.94846 24.4316C7.65744 19.5078 9.08777 14.6425 11.9676 10.7604C14.8475 6.87832 18.9762 4.25002 23.569 3.37501C26.2478 2.80255 29.0151 2.88643 31.6585 3.62021C34.0779 4.31936 36.5502 4.79486 39.0475 5.04133C42.6686 5.3816 45.5797 7.31812 47.8281 10.3305C48.4813 11.2112 48.4529 12.0418 47.795 12.5623C47.137 13.0827 46.4554 12.8725 45.8116 12.0268C43.3881 8.87435 40.2735 7.46824 36.4583 7.55831C35.4074 7.58333 34.3329 7.18301 33.2963 6.87277C30.5745 6.07214 27.8623 5.52171 24.9985 5.87198C21.5428 6.35464 18.3162 7.96708 15.77 10.4838C13.2239 13.0004 11.4855 16.2955 10.798 19.908C10.4309 22.0091 10.3957 24.1599 10.6939 26.2731C13.747 25.9378 16.8474 25.9028 19.8201 25.2072C26.3049 23.681 30.8775 19.4477 33.6182 13.0176C33.746 12.7174 33.7933 12.3221 34.0016 12.1169C34.3519 11.7766 34.8299 11.3013 35.2086 11.3463C35.4567 11.4068 35.6892 11.5242 35.8896 11.6903C36.09 11.8563 36.2534 12.0669 36.3683 12.3071C36.6829 13.2142 36.953 14.1378 37.1778 15.0742C38.3924 18.8122 40.3264 22.2436 42.8579 25.1522C43.0384 25.3782 43.264 25.5592 43.5186 25.6821C43.7731 25.805 44.0503 25.8666 44.3301 25.8627C45.4235 25.9128 46.5075 26.1329 47.6861 26.2981C47.7997 25.1522 47.9843 23.8411 48.0459 22.5301C48.1216 20.8738 48.1216 19.2125 48.1074 17.5562C48.1074 16.6605 48.505 16.005 49.2482 15.9199C49.428 15.891 49.6116 15.9045 49.786 15.9593C49.9603 16.0142 50.1211 16.109 50.2567 16.2371C50.3924 16.3652 50.4996 16.5234 50.5707 16.7004C50.6419 16.8774 50.6751 17.0688 50.6682 17.261C50.7542 19.0684 50.7384 20.8797 50.6209 22.6852C49.9298 30.6915 49.163 38.6978 48.4435 46.7342C48.221 49.2361 46.5501 50.4921 44.2591 49.8816C42.1337 49.3112 39.9989 48.7858 37.7079 48.2003V50.5622C37.7079 52.1684 37.7079 53.7747 37.7079 55.381C37.7079 56.6119 38.1813 57.2775 39.2984 57.7128C39.4025 57.5477 39.5066 57.3726 39.6108 57.2124C40.0311 56.4794 40.6829 55.9268 41.451 55.6521C42.2192 55.3775 43.0544 55.3984 43.8094 55.7112C45.6318 56.4268 47.4352 57.2124 49.2292 57.983C49.69 58.1662 50.0956 58.477 50.4038 58.8829C50.7119 59.2887 50.9111 59.7747 50.9806 60.2898C51.0705 60.9153 51.3688 61.1105 51.8563 61.3307C52.7651 61.736 53.6361 62.2564 54.6017 62.7718C54.4692 60.8553 54.3367 58.9488 54.2041 57.0373C54.0006 54.14 53.7686 51.2427 53.603 48.3404C53.4562 46.0736 54.4455 44.9978 56.5661 44.9978H59.4062C58.7341 43.2164 58.2323 41.495 57.4655 39.9488C56.5614 38.0974 55.397 36.391 54.3982 34.5946C53.8796 33.7248 53.5775 32.7305 53.5198 31.7041C53.4621 30.6778 53.6508 29.6526 54.0683 28.724C54.4858 27.7954 55.1185 26.9934 55.9078 26.3926C56.697 25.7917 57.6171 25.4115 58.5826 25.2873C61.702 24.7869 64.6178 27.2388 65.0911 30.7916C65.3468 32.7081 65.5314 34.6446 65.91 36.5361C66.213 38.0373 66.7621 39.5385 67.1975 41.0097H67.4342C67.6851 39.5535 67.865 38.0824 68.1963 36.6462C68.6697 34.5245 67.9028 32.573 67.5904 30.5714C67.1881 27.9744 66.6437 25.4024 66.1704 22.8203C65.7396 20.4134 67.3538 18.7421 69.6495 19.1725C73.6824 19.9264 77.7138 20.6736 81.7436 21.4142C84.1103 21.8496 85.057 23.9762 83.85 26.148C83.1257 27.454 82.3826 28.745 81.6489 30.036C81.6868 30.1061 81.6962 30.1811 81.7388 30.2062C84.1718 31.5622 84.7872 33.3436 83.76 36.0708C83.192 37.572 82.5625 39.0731 82.0702 40.6294C81.6252 42.0205 81.3365 43.4666 81.0193 44.7226C82.108 45.0729 83.1257 45.223 83.9399 45.7234C84.8866 46.3138 84.9529 47.4748 84.844 48.6407C86.5528 49.106 86.8463 50.4271 86.8131 52.0634C86.7469 55.2459 86.8131 58.4234 86.8131 61.6059V62.6517C87.2895 62.6528 87.7542 62.8077 88.145 63.0957C88.5358 63.3836 88.8341 63.7909 89 64.263V89.3427ZM56.1212 47.755C56.6703 55.5361 57.2146 63.2172 57.759 70.9282H75.1167V65.514C75.1167 63.5624 75.5096 63.012 77.3083 62.5116C77.3083 60.44 77.3083 58.3533 77.3083 56.2667C77.3319 53.0742 78.7804 50.7623 81.4406 49.4013C82.1885 49.016 82.3873 48.5806 82.2264 47.76L56.1212 47.755ZM16.7338 28.74C16.7338 30.8066 16.6533 33.0184 16.7338 35.2151C16.9468 40.184 19.1858 43.8769 23.2518 46.3288C24.4447 47.0444 25.6754 47.6949 26.8966 48.3605C27.5904 48.7643 28.3696 48.9761 29.1616 48.9761C29.9536 48.9761 30.7328 48.7643 31.4266 48.3605C32.6951 47.6649 33.9827 46.9994 35.2134 46.2338C39.128 43.8119 41.3196 40.229 41.5657 35.3902C41.6793 33.1234 41.6367 30.8517 41.5657 28.5799C41.5415 28.0566 41.3533 27.5566 41.0308 27.1587C38.5591 24.2981 36.5963 20.9891 35.237 17.3911C35.1424 17.1359 35.024 16.8907 34.9009 16.5954C31.2088 21.7445 31.7768 21.4042 27.228 24.982C27.147 25.0698 26.7546 25.4824 26.4743 25.6237C26.2813 25.7326 26.1545 25.7997 25.8079 25.9828C25.3346 26.233 25.3346 26.233 24.1512 26.7334C23.6778 26.9336 22.982 27.1988 22.2578 27.484C20.3029 27.8793 18.8355 28.2046 16.7338 28.74ZM20.2603 67.6707C20.3691 68.6714 20.4496 69.7623 20.62 70.8332C20.7049 71.1396 20.9005 71.3984 21.1644 71.5537C26.51 74.8163 31.8573 74.8163 37.2062 71.5537C37.4501 71.4178 37.6337 71.186 37.7174 70.9082C37.883 69.8073 37.973 68.6915 38.1055 67.4405C37.8168 67.6857 37.6322 67.8458 37.4334 68.0159C35.8624 69.4391 33.9904 70.4415 31.9757 70.9382C30.6645 71.2635 29.9261 70.9382 29.732 70.0225C29.5379 69.1068 30.087 68.5964 31.3745 68.2711C34.0679 67.5956 36.3305 66.1995 37.7978 63.6575C38.2798 62.6706 38.6912 61.6469 39.0286 60.5951C36.0654 59.5493 34.9483 57.4876 35.0903 54.5203C35.1566 53.1342 35.0903 51.7381 35.0903 50.342C35.0903 50.0918 35.043 49.8416 35.0098 49.4813C33.0786 50.4821 31.3461 51.7231 29.1782 51.7331C27.0102 51.7431 25.2352 50.4671 23.2329 49.4463V50.5822C23.2329 52.2185 23.2329 53.8498 23.2329 55.4861C23.2446 56.3694 23.0348 57.2404 22.625 58.0103C22.2151 58.7802 21.6197 59.4217 20.8993 59.8695C20.4311 60.149 19.9456 60.3948 19.4461 60.6051C19.5273 61.0117 19.6316 61.4127 19.7585 61.806C20.769 64.4507 22.7273 66.5659 25.2068 67.6907C26.2245 68.1911 26.57 68.8116 26.2576 69.6222C25.9452 70.4328 25.1547 70.7181 24.1559 70.1526C22.8306 69.387 21.5714 68.5163 20.2603 67.6707ZM77.7438 88.1868H86.3729V70.7831H77.7438V88.1868ZM61.6783 83.4131H68.7501C69.0815 81.0862 69.0815 81.0862 71.2873 81.0812H75.0457V78.249H74.0374C70.2838 78.249 66.5301 78.249 62.7765 78.249C62.0238 78.249 61.3943 78.0639 61.1671 77.2132C60.9162 76.2674 61.56 75.5219 62.6345 75.5219C66.4781 75.5219 70.3185 75.5219 74.1558 75.5219H75.0646V73.7104H55.7851C55.1905 73.6824 54.6011 73.839 54.0897 74.1608C53.5783 74.4827 53.1672 74.9559 52.9071 75.5219H56.0312C57.0489 75.5219 57.6406 76.0222 57.669 76.8329C57.6974 77.6435 57.0679 78.239 56.0218 78.244C54.3319 78.244 52.6421 78.279 50.9522 78.244C48.5618 78.194 48.5239 78.309 48.6186 80.846C48.6186 80.8961 48.6659 80.9461 48.7369 81.0862H52.5237C54.9851 81.0862 57.4513 81.0862 59.9127 81.0862C61.1671 81.0862 61.5552 81.5116 61.612 82.8176C61.6452 82.9927 61.6594 83.1729 61.6783 83.4131ZM68.7785 21.7145C68.7497 21.8577 68.7339 22.0034 68.7312 22.1498C69.4191 25.9128 70.1102 29.6774 70.8045 33.4437C70.8252 33.5393 70.8662 33.6286 70.9244 33.7049C70.9827 33.7812 71.0566 33.8424 71.1405 33.884C72.0872 34.0892 73.0718 34.2493 74.099 34.4395C74.099 33.9791 74.099 33.6489 74.099 33.3236C74.2031 31.272 75.6279 29.4756 77.474 29.5757C78.823 29.6457 79.3342 28.9802 79.8407 27.9494C80.1531 27.3039 80.5413 26.7034 80.8963 26.0779L81.9613 24.1764L68.7785 21.7145ZM75.0883 83.8734H71.4861C71.1831 86.1452 71.1169 86.2053 68.9347 86.2053H61.6499C59.3447 86.2053 59.3447 86.2053 58.9471 83.8684H48.7085C48.6707 83.9485 48.6186 83.9985 48.6186 84.0536C48.6186 84.8692 48.6186 85.6849 48.6186 86.5055C48.6186 88.0067 48.8221 88.2519 50.2375 88.2519H75.0883V83.8734ZM59.4914 38.1624C60.6843 37.7021 61.8108 37.2817 62.9232 36.8164C63.0094 36.76 63.0812 36.6822 63.1324 36.5898C63.1835 36.4973 63.2125 36.393 63.2167 36.2859C62.9469 34.2844 62.7433 32.2528 62.3221 30.2812C61.9008 28.3097 59.8606 27.479 58.1282 28.1896C57.721 28.3463 57.3494 28.5915 57.0372 28.9092C56.7251 29.227 56.4793 29.6102 56.3156 30.0344C56.152 30.4586 56.0742 30.9143 56.0872 31.3722C56.1001 31.8301 56.2036 32.28 56.391 32.6931C57.314 34.5546 58.4311 36.311 59.4914 38.1624ZM84.186 51.3978C83.0329 51.4724 81.9492 52.0055 81.1528 52.8902C80.3563 53.7748 79.9062 54.9454 79.8928 56.1666C79.8928 57.2525 79.8928 58.3433 79.8928 59.4342V62.5666H84.1908L84.186 51.3978ZM18.4331 45.8935C16.4481 43.7222 15.0717 41.0113 14.457 38.0623C14.4292 37.9534 14.3792 37.8521 14.3105 37.7657C14.2418 37.6793 14.1561 37.6097 14.0594 37.5619C13.2831 37.2817 12.4926 37.0615 11.6169 36.7913C11.9246 40.1089 12.2181 43.4366 12.5636 46.7542C12.5636 46.9493 13.0985 47.2546 13.321 47.2196C14.9872 46.8443 16.6344 46.3739 18.4331 45.8935ZM40.2451 45.9986C41.6935 46.3839 43.3029 46.7742 44.8886 47.2496C45.6176 47.4647 45.8353 47.1795 45.8684 46.494C46.0104 44.7476 46.1903 42.9912 46.3418 41.2649C46.4791 39.7637 46.5974 38.2975 46.7205 36.8414C45.7738 37.1216 44.7277 37.1316 44.1691 37.7021C43.6106 38.2725 43.5585 39.3734 43.2745 40.2541C43.2508 40.3405 43.219 40.4243 43.1798 40.5043C42.2016 42.3257 41.2233 44.1571 40.2451 45.9986ZM73.512 44.9528C73.9854 42.4158 74.5297 39.9138 74.1416 37.2517L70.8281 36.6362C70.3548 39.4384 69.8814 42.1406 69.4365 44.9528H73.512ZM54.7437 71.0183C54.9757 67.5706 53.797 65.0136 51.6338 64.278C51.7522 65.0586 51.8279 65.8042 51.9841 66.5348C52.1894 67.2792 52.1777 68.0717 51.9505 68.809C51.7234 69.5463 51.2914 70.1941 50.7108 70.668C49.3239 71.919 48.0269 73.2851 46.6637 74.6211L47.4258 75.9922C48.3062 75.8171 49.0541 75.682 49.7925 75.4918C49.8927 75.4651 49.9866 75.4167 50.0681 75.3494C50.1496 75.2822 50.217 75.1978 50.2659 75.1015C51.009 72.8598 52.5521 71.5587 54.7437 71.0183ZM79.5614 39.8437C80.2572 37.9573 80.9815 36.1258 81.6063 34.2593C81.6674 34.1032 81.6934 33.9341 81.6822 33.7655C81.671 33.5969 81.6228 33.4334 81.5416 33.2878C81.4603 33.1423 81.3482 33.0186 81.214 32.9267C81.0799 32.8348 80.9273 32.7771 80.7685 32.7582C79.8493 32.5416 78.9203 32.3746 77.9852 32.2578C77.8239 32.2232 77.6573 32.2281 77.4982 32.272C77.339 32.316 77.1914 32.3978 77.0667 32.5113C76.942 32.6247 76.8435 32.7668 76.7787 32.9267C76.7139 33.0866 76.6846 33.26 76.6929 33.4337C76.6598 35.3902 76.6929 37.3518 76.6929 39.3083L79.5614 39.8437ZM77.739 67.9209H86.3776V65.4189H77.739V67.9209ZM60.5991 40.6344C61.0724 41.9954 61.4937 43.2764 61.9623 44.5324C62.0134 44.6425 62.0878 44.7386 62.1797 44.8132C62.2717 44.8879 62.3787 44.9391 62.4925 44.9628C63.5717 45.0028 64.6557 44.9628 65.8816 44.9628L63.9598 39.3534L60.5991 40.6344ZM14.0547 34.6997V28.6449C12.3837 28.4247 11.3045 29.1453 11.1388 30.5714C11.0717 31.5157 11.33 32.4537 11.8659 33.2125C12.4018 33.9712 13.1792 34.4994 14.0547 34.6997ZM44.2685 28.695V34.6997C44.972 34.5577 45.6189 34.1955 46.1253 33.6602C46.6317 33.1248 46.9743 32.441 47.1086 31.6973C47.5772 29.6507 46.2803 28.2646 44.2685 28.69V28.695ZM78.4585 44.9378L78.8561 42.5158L76.6267 42.0905C76.461 43.0613 76.3095 43.972 76.1533 44.9378H78.4585Z" fill="#322C2D"/>
<path d="M3.24499 86.365C3.24499 87.39 3.24499 88.415 3.24499 89.445C3.26502 89.6352 3.24483 89.8276 3.18573 90.0095C3.12664 90.1915 3.02995 90.359 2.90196 90.5012C2.77396 90.6433 2.6175 90.757 2.44274 90.8348C2.26797 90.9127 2.0788 90.9529 1.88749 90.9529C1.69618 90.9529 1.50701 90.9127 1.33225 90.8348C1.15748 90.757 1.00103 90.6433 0.873027 90.5012C0.745029 90.359 0.648346 90.1915 0.58925 90.0095C0.530154 89.8276 0.509965 89.6352 0.529992 89.445C0.529992 87.395 0.529992 85.34 0.529992 83.29C0.514042 83.1083 0.53606 82.9253 0.594649 82.7526C0.653238 82.5798 0.747115 82.4212 0.870314 82.2867C0.993514 82.1522 1.14334 82.0448 1.31028 81.9714C1.47721 81.8979 1.65761 81.86 1.83999 81.86C2.02969 81.85 2.21932 81.8808 2.39612 81.9503C2.57292 82.0198 2.73279 82.1263 2.86496 82.2627C2.99713 82.3992 3.09855 82.5624 3.16238 82.7413C3.2262 82.9202 3.25096 83.1107 3.23499 83.3C3.26499 84.31 3.24499 85.34 3.24499 86.365Z" fill="#322C2D"/>
<path d="M30.325 44.24C28.7753 44.2284 27.2662 43.7434 26 42.85C25.8451 42.7566 25.7103 42.6335 25.6033 42.4877C25.4962 42.342 25.4191 42.1765 25.3764 42.0008C25.3336 41.8251 25.326 41.6426 25.3541 41.464C25.3822 41.2854 25.4454 41.1141 25.54 40.96C25.6331 40.8036 25.7578 40.6683 25.9062 40.5628C26.0545 40.4572 26.2232 40.3838 26.4015 40.3471C26.5798 40.3104 26.7638 40.3113 26.9417 40.3496C27.1197 40.388 27.2877 40.463 27.435 40.57C28.274 41.1782 29.2837 41.5058 30.32 41.5058C31.3563 41.5058 32.366 41.1782 33.205 40.57C33.3483 40.4692 33.5105 40.3987 33.682 40.3627C33.8534 40.3267 34.0303 40.326 34.202 40.3606C34.3737 40.3953 34.5365 40.4645 34.6806 40.5641C34.8247 40.6637 34.947 40.7916 35.04 40.94C35.1408 41.0902 35.2107 41.259 35.2456 41.4366C35.2806 41.6141 35.2799 41.7968 35.2436 41.9741C35.2073 42.1513 35.1362 42.3196 35.0343 42.4691C34.9323 42.6186 34.8017 42.7464 34.65 42.845C33.3836 43.7388 31.8749 44.2254 30.325 44.24Z" fill="#322C2D"/>
</g>
<defs>
<clipPath id="clip0_0_128">
<rect width="90" height="90" fill="white"/>
</clipPath>
</defs>
</svg>
