<svg width="87" height="18" viewBox="0 0 87 18" fill="none" xmlns="http://www.w3.org/2000/svg">
<path d="M8.18287 1.59159C8.34564 1.09062 9.05437 1.09062 9.21715 1.59159L10.5312 5.63584C10.604 5.85987 10.8128 6.01156 11.0483 6.01156H15.3007C15.8275 6.01156 16.0465 6.6856 15.6203 6.99521L12.1801 9.4947C11.9895 9.63316 11.9098 9.87859 11.9826 10.1026L13.2966 14.1469C13.4594 14.6478 12.886 15.0644 12.4599 14.7548L9.01962 12.2553C8.82904 12.1169 8.57098 12.1169 8.3804 12.2553L4.94016 14.7548C4.51401 15.0644 3.94064 14.6478 4.10341 14.1469L5.41747 10.1026C5.49026 9.87859 5.41052 9.63316 5.21994 9.4947L1.77969 6.99521C1.35355 6.6856 1.57256 6.01156 2.0993 6.01156H6.35168C6.58724 6.01156 6.79602 5.85987 6.86882 5.63584L8.18287 1.59159Z" fill="#E0DFDE"/>
<path d="M42.983 1.59159C43.1457 1.09062 43.8545 1.09062 44.0172 1.59159L45.3313 5.63584C45.4041 5.85987 45.6129 6.01156 45.8484 6.01156H50.1008C50.6276 6.01156 50.8466 6.6856 50.4204 6.99521L46.9802 9.4947C46.7896 9.63316 46.7099 9.87859 46.7827 10.1026L48.0967 14.1469C48.2595 14.6478 47.6861 15.0644 47.26 14.7548L43.8197 12.2553C43.6291 12.1169 43.3711 12.1169 43.1805 12.2553L39.7403 14.7548C39.3141 15.0644 38.7407 14.6478 38.9035 14.1469L40.2176 10.1026C40.2904 9.87859 40.2106 9.63316 40.02 9.4947L36.5798 6.99521C36.1536 6.6856 36.3727 6.01156 36.8994 6.01156H41.1518C41.3873 6.01156 41.5961 5.85987 41.6689 5.63584L42.983 1.59159Z" fill="#E0DFDE"/>
<path d="M25.5827 1.59159C25.7454 1.09062 26.4542 1.09062 26.617 1.59159L27.931 5.63584C28.0038 5.85987 28.2126 6.01156 28.4481 6.01156H32.7005C33.2273 6.01156 33.4463 6.6856 33.0201 6.99521L29.5799 9.4947C29.3893 9.63316 29.3096 9.87859 29.3824 10.1026L30.6964 14.1469C30.8592 14.6478 30.2858 15.0644 29.8597 14.7548L26.4194 12.2553C26.2288 12.1169 25.9708 12.1169 25.7802 12.2553L22.34 14.7548C21.9138 15.0644 21.3404 14.6478 21.5032 14.1469L22.8173 10.1026C22.8901 9.87859 22.8103 9.63316 22.6197 9.4947L19.1795 6.99521C18.7534 6.6856 18.9724 6.01156 19.4991 6.01156H23.7515C23.987 6.01156 24.1958 5.85987 24.2686 5.63584L25.5827 1.59159Z" fill="#E0DFDE"/>
<path d="M60.3828 1.59159C60.5455 1.09062 61.2543 1.09062 61.417 1.59159L62.7311 5.63584C62.8039 5.85987 63.0127 6.01156 63.2482 6.01156H67.5006C68.0274 6.01156 68.2464 6.6856 67.8202 6.99521L64.38 9.4947C64.1894 9.63316 64.1097 9.87859 64.1825 10.1026L65.4965 14.1469C65.6593 14.6478 65.0859 15.0644 64.6598 14.7548L61.2195 12.2553C61.0289 12.1169 60.7709 12.1169 60.5803 12.2553L57.1401 14.7548C56.7139 15.0644 56.1405 14.6478 56.3033 14.1469L57.6174 10.1026C57.6902 9.87859 57.6104 9.63316 57.4198 9.4947L53.9796 6.99521C53.5534 6.6856 53.7725 6.01156 54.2992 6.01156H58.5516C58.7871 6.01156 58.9959 5.85987 59.0687 5.63584L60.3828 1.59159Z" fill="#E0DFDE"/>
<path d="M77.7831 1.59159C77.9458 1.09062 78.6546 1.09062 78.8173 1.59159L80.1314 5.63584C80.2042 5.85987 80.413 6.01156 80.6485 6.01156H84.9009C85.4277 6.01156 85.6467 6.6856 85.2205 6.99521L81.7803 9.4947C81.5897 9.63316 81.51 9.87859 81.5827 10.1026L82.8968 14.1469C83.0596 14.6478 82.4862 15.0644 82.0601 14.7548L78.6198 12.2553C78.4292 12.1169 78.1712 12.1169 77.9806 12.2553L74.5404 14.7548C74.1142 15.0644 73.5408 14.6478 73.7036 14.1469L75.0177 10.1026C75.0905 9.87859 75.0107 9.63316 74.8201 9.4947L71.3799 6.99521C70.9537 6.6856 71.1728 6.01156 71.6995 6.01156H75.9519C76.1874 6.01156 76.3962 5.85987 76.469 5.63584L77.7831 1.59159Z" fill="#E0DFDE"/>
<mask id="mask0_0_31" style="mask-type:alpha" maskUnits="userSpaceOnUse" x="1" y="1" width="85" height="14">
<path d="M8.18287 1.59159C8.34564 1.09062 9.05437 1.09062 9.21715 1.59159L10.5312 5.63584C10.604 5.85987 10.8128 6.01156 11.0483 6.01156H15.3007C15.8275 6.01156 16.0465 6.6856 15.6203 6.99521L12.1801 9.4947C11.9895 9.63316 11.9098 9.87859 11.9826 10.1026L13.2966 14.1469C13.4594 14.6478 12.886 15.0644 12.4599 14.7548L9.01962 12.2553C8.82904 12.1169 8.57098 12.1169 8.3804 12.2553L4.94016 14.7548C4.51401 15.0644 3.94064 14.6478 4.10341 14.1469L5.41747 10.1026C5.49026 9.87859 5.41052 9.63316 5.21994 9.4947L1.77969 6.99521C1.35355 6.6856 1.57256 6.01156 2.0993 6.01156H6.35168C6.58724 6.01156 6.79602 5.85987 6.86882 5.63584L8.18287 1.59159Z" fill="#E0DFDE"/>
<path d="M42.983 1.59159C43.1457 1.09062 43.8545 1.09062 44.0172 1.59159L45.3313 5.63584C45.4041 5.85987 45.6129 6.01156 45.8484 6.01156H50.1008C50.6276 6.01156 50.8466 6.6856 50.4204 6.99521L46.9802 9.4947C46.7896 9.63316 46.7099 9.87859 46.7827 10.1026L48.0967 14.1469C48.2595 14.6478 47.6861 15.0644 47.26 14.7548L43.8197 12.2553C43.6291 12.1169 43.3711 12.1169 43.1805 12.2553L39.7403 14.7548C39.3141 15.0644 38.7407 14.6478 38.9035 14.1469L40.2176 10.1026C40.2904 9.87859 40.2106 9.63316 40.02 9.4947L36.5798 6.99521C36.1536 6.6856 36.3727 6.01156 36.8994 6.01156H41.1518C41.3873 6.01156 41.5961 5.85987 41.6689 5.63584L42.983 1.59159Z" fill="#E0DFDE"/>
<path d="M25.5827 1.59159C25.7454 1.09062 26.4542 1.09062 26.617 1.59159L27.931 5.63584C28.0038 5.85987 28.2126 6.01156 28.4481 6.01156H32.7005C33.2273 6.01156 33.4463 6.6856 33.0201 6.99521L29.5799 9.4947C29.3893 9.63316 29.3096 9.87859 29.3824 10.1026L30.6964 14.1469C30.8592 14.6478 30.2858 15.0644 29.8597 14.7548L26.4194 12.2553C26.2288 12.1169 25.9708 12.1169 25.7802 12.2553L22.34 14.7548C21.9138 15.0644 21.3404 14.6478 21.5032 14.1469L22.8173 10.1026C22.8901 9.87859 22.8103 9.63316 22.6197 9.4947L19.1795 6.99521C18.7534 6.6856 18.9724 6.01156 19.4991 6.01156H23.7515C23.987 6.01156 24.1958 5.85987 24.2686 5.63584L25.5827 1.59159Z" fill="#E0DFDE"/>
<path d="M60.3828 1.59159C60.5455 1.09062 61.2543 1.09062 61.417 1.59159L62.7311 5.63584C62.8039 5.85987 63.0127 6.01156 63.2482 6.01156H67.5006C68.0274 6.01156 68.2464 6.6856 67.8202 6.99521L64.38 9.4947C64.1894 9.63316 64.1097 9.87859 64.1825 10.1026L65.4965 14.1469C65.6593 14.6478 65.0859 15.0644 64.6598 14.7548L61.2195 12.2553C61.0289 12.1169 60.7709 12.1169 60.5803 12.2553L57.1401 14.7548C56.7139 15.0644 56.1405 14.6478 56.3033 14.1469L57.6174 10.1026C57.6902 9.87859 57.6104 9.63316 57.4198 9.4947L53.9796 6.99521C53.5534 6.6856 53.7725 6.01156 54.2992 6.01156H58.5516C58.7871 6.01156 58.9959 5.85987 59.0687 5.63584L60.3828 1.59159Z" fill="#E0DFDE"/>
<path d="M77.7831 1.59159C77.9458 1.09062 78.6546 1.09062 78.8173 1.59159L80.1314 5.63584C80.2042 5.85987 80.413 6.01156 80.6485 6.01156H84.9009C85.4277 6.01156 85.6467 6.6856 85.2205 6.99521L81.7803 9.4947C81.5897 9.63316 81.51 9.87859 81.5827 10.1026L82.8968 14.1469C83.0596 14.6478 82.4862 15.0644 82.0601 14.7548L78.6198 12.2553C78.4292 12.1169 78.1712 12.1169 77.9806 12.2553L74.5404 14.7548C74.1142 15.0644 73.5408 14.6478 73.7036 14.1469L75.0177 10.1026C75.0905 9.87859 75.0107 9.63316 74.8201 9.4947L71.3799 6.99521C70.9537 6.6856 71.1728 6.01156 71.6995 6.01156H75.9519C76.1874 6.01156 76.3962 5.85987 76.469 5.63584L77.7831 1.59159Z" fill="#E0DFDE"/>
</mask>
<g mask="url(#mask0_0_31)">
<rect x="1.08758" width="68.5126" height="16.3125" fill="#FFD800"/>
</g>
</svg>
