<svg width="17" height="17" viewBox="0 0 17 17" fill="none" xmlns="http://www.w3.org/2000/svg">
<path d="M7.96706 0.387348C8.13486 -0.129083 8.86547 -0.129083 9.03327 0.387348L10.6556 5.38026C10.7306 5.61122 10.9458 5.76759 11.1887 5.76759H16.4385C16.9815 5.76759 17.2073 6.46244 16.768 6.78161L12.5208 9.86741C12.3243 10.0101 12.2421 10.2632 12.3172 10.4941L13.9395 15.487C14.1073 16.0035 13.5162 16.4329 13.0769 16.1137L8.82964 13.0279C8.63318 12.8852 8.36715 12.8852 8.17069 13.0279L3.92346 16.1137C3.48416 16.4329 2.89308 16.0035 3.06088 15.487L4.68318 10.4941C4.75822 10.2632 4.67601 10.0101 4.47955 9.86741L0.23232 6.78161C-0.206982 6.46244 0.0187893 5.76759 0.561797 5.76759H5.81166C6.0545 5.76759 6.26972 5.61122 6.34477 5.38026L7.96706 0.387348Z" fill="#FFD800"/>
</svg>
