<svg width="12" height="11" viewBox="0 0 12 11" fill="none" xmlns="http://www.w3.org/2000/svg">
<path d="M5.44165 0.235092C5.5435 -0.0783689 5.98696 -0.0783695 6.08881 0.235091L7.21658 3.70602C7.26213 3.84621 7.39277 3.94112 7.54017 3.94112H11.1897C11.5193 3.94112 11.6564 4.36288 11.3897 4.55661L8.43715 6.70176C8.31791 6.7884 8.26801 6.94197 8.31356 7.08216L9.44133 10.5531C9.54318 10.8666 9.18441 11.1272 8.91777 10.9335L5.96521 8.78833C5.84597 8.70169 5.68449 8.70169 5.56524 8.78833L2.61269 10.9335C2.34605 11.1272 1.98728 10.8666 2.08913 10.5531L3.2169 7.08216C3.26245 6.94197 3.21255 6.7884 3.0933 6.70176L0.140752 4.55661C-0.125893 4.36288 0.0111439 3.94112 0.340736 3.94112H3.99029C4.13769 3.94112 4.26832 3.84621 4.31387 3.70602L5.44165 0.235092Z" fill="#FFD800"/>
</svg>
