<svg width="43" height="24" viewBox="0 0 43 24" fill="none" xmlns="http://www.w3.org/2000/svg">
<path d="M0.511124 23.5143C0.40226 23.5143 0.347831 23.5143 0.347831 23.5143C0.102888 23.5143 -0.0604088 23.3687 0.0212389 23.1504C0.0212389 23.0048 0.184536 22.8592 0.347831 22.932C0.429479 22.932 3.2055 23.0776 9.16578 19.7292C13.3298 17.3999 17.5755 12.8869 20.1066 10.1208C21.6579 8.44666 22.2294 7.79154 22.6377 7.64596C22.9642 7.57317 23.4541 7.50038 24.189 7.50038C26.3118 7.28201 29.741 6.99085 31.7006 5.53504C33.8234 4.07922 36.0279 2.98737 37.6608 2.25946C38.2596 2.01682 38.7767 1.77419 39.2121 1.53155C40.8451 0.730856 42.4781 0.0757406 42.4781 0.0757406C42.6414 -0.0698406 42.8863 0.00294777 42.968 0.22132C43.0496 0.366901 42.9679 0.512482 42.8046 0.585273C42.723 0.658063 41.1717 1.31318 39.5387 2.11388C39.1033 2.30799 38.5862 2.55062 37.9874 2.84179C36.4361 3.56969 34.2316 4.58876 32.1904 6.04457C29.986 7.64596 26.3935 7.93713 24.2706 8.08271C23.6174 8.1555 23.1275 8.22829 22.8826 8.22829C22.6377 8.37387 21.5762 9.46573 20.5965 10.5576C18.0654 13.3236 13.8197 17.9094 9.57402 20.3115C4.10362 23.296 1.24595 23.5143 0.511124 23.5143Z" fill="#012C20"/>
</svg>
