<svg width="25" height="25" viewBox="0 0 25 25" fill="none" xmlns="http://www.w3.org/2000/svg">
<path d="M7.50223 25C6.81453 25 6.2256 24.755 5.73546 24.265C5.24531 23.775 5.00066 23.1867 5.00149 22.5C5.00149 21.8125 5.24656 21.2237 5.73671 20.7337C6.22685 20.2437 6.81536 19.9992 7.50223 20C8.18994 20 8.77886 20.245 9.26901 20.735C9.75916 21.225 10.0038 21.8133 10.003 22.5C10.003 23.1875 9.7579 23.7762 9.26776 24.2662C8.77761 24.7562 8.1891 25.0008 7.50223 25ZM20.006 25C19.3183 25 18.7293 24.755 18.2392 24.265C17.749 23.775 17.5044 23.1867 17.5052 22.5C17.5052 21.8125 17.7503 21.2237 18.2404 20.7337C18.7306 20.2437 19.3191 19.9992 20.006 20C20.6937 20 21.2826 20.245 21.7727 20.735C22.2629 21.225 22.5075 21.8133 22.5067 22.5C22.5067 23.1875 22.2616 23.7762 21.7715 24.2662C21.2813 24.7562 20.6928 25.0008 20.006 25ZM6.43942 5L9.44031 11.25H18.1929L21.6314 5H6.43942ZM7.50223 18.75C6.56445 18.75 5.85591 18.3383 5.3766 17.515C4.89729 16.6917 4.87645 15.8742 5.31408 15.0625L7.00208 12L2.50074 2.5H1.21911C0.864841 2.5 0.573087 2.38 0.343852 2.14C0.114617 1.9 0 1.60334 0 1.25C0 0.895837 0.120036 0.598754 0.360107 0.358754C0.600179 0.118754 0.896934 -0.000829008 1.25037 4.32526e-06H3.28223C3.51146 4.32526e-06 3.73028 0.0625044 3.93867 0.187504C4.14707 0.312504 4.30336 0.489588 4.40756 0.718754L5.25156 2.5H23.6946C24.2572 2.5 24.6428 2.70834 24.8511 3.125C25.0595 3.54167 25.0491 3.97917 24.8199 4.4375L20.3811 12.4375C20.1518 12.8542 19.8497 13.1771 19.4745 13.4063C19.0994 13.6354 18.6722 13.75 18.1929 13.75H8.87764L7.50223 16.25H21.2876C21.6419 16.25 21.9336 16.37 22.1628 16.61C22.3921 16.85 22.5067 17.1467 22.5067 17.5C22.5067 17.8542 22.3867 18.1512 22.1466 18.3912C21.9065 18.6312 21.6098 18.7508 21.2563 18.75H7.50223Z" fill="white"/>
</svg>
