<svg width="90" height="90" viewBox="0 0 90 90" fill="none" xmlns="http://www.w3.org/2000/svg">
<g clip-path="url(#clip0_0_121)">
<path d="M48.36 0.255005C50.2711 0.720005 52.2241 1.0176 54.0841 1.6128C57.0115 2.57631 59.6498 4.26002 61.7566 6.50926C62.2116 6.96669 62.7082 7.38077 63.24 7.74616C64.5074 8.62625 65.5579 9.78322 66.312 11.1294C67.0661 12.4757 67.5039 13.9758 67.5924 15.5163C67.8621 18.9573 67.7272 22.4309 67.8249 25.8905C67.8556 27.0863 67.9846 28.2777 68.2108 29.4524C68.7316 32.0936 66.5554 34.8231 63.6724 35.0324C63.4539 35.0324 63.2307 35.0324 63.0028 35.0649C62.6913 36.2739 62.4588 37.4829 62.0728 38.6454C60.8895 42.1772 58.5395 45.2011 55.4094 47.22C55.1984 47.3203 55.024 47.484 54.9106 47.6883C54.7972 47.8925 54.7505 48.1271 54.777 48.3593C54.833 48.978 54.833 49.6005 54.777 50.2193C54.7165 50.9075 55.0234 51.2237 55.6465 51.4376C59.7943 52.8605 63.9235 54.3252 68.0667 55.7528C71.3217 56.8781 73.284 59.138 73.9582 62.5139C74.0884 63.1463 74.2372 63.774 74.3442 64.4111C74.4274 64.7415 74.3762 65.0915 74.2019 65.3844C74.0276 65.6772 73.7444 65.889 73.4142 65.9735C73.2419 66.0132 73.0632 66.0165 72.8896 65.9832C72.7159 65.9499 72.5512 65.8807 72.4058 65.78C72.2605 65.6793 72.1378 65.5494 72.0456 65.3985C71.9534 65.2477 71.8937 65.0792 71.8704 64.904C71.6425 63.9461 71.4751 62.9742 71.2147 62.0256C71.0264 61.2395 70.6494 60.5111 70.1162 59.9034C69.5831 59.2957 68.91 58.8271 68.155 58.5381C65.365 57.464 62.575 56.5154 59.7525 55.5156C59.6228 55.4996 59.4916 55.4996 59.3619 55.5156V57.3059C59.3619 61.3328 59.3619 65.355 59.3619 69.3959C59.4268 70.2503 59.5355 71.1008 59.6874 71.9441C59.7664 72.6974 59.8176 73.4553 59.8408 74.2133C59.8408 75.0503 59.8408 75.8873 59.8408 76.7661H63.5608V74.1063C63.5608 73.4879 63.5283 72.8648 63.5608 72.2463C63.5589 72.0895 63.5886 71.9339 63.6482 71.7888C63.7077 71.6437 63.7959 71.5121 63.9074 71.4019C64.019 71.2916 64.1516 71.205 64.2974 71.1472C64.4432 71.0893 64.5991 71.0614 64.7559 71.0652C64.9119 71.0525 65.069 71.0707 65.218 71.1187C65.367 71.1668 65.5051 71.2438 65.6243 71.3453C65.7435 71.4468 65.8415 71.5708 65.9127 71.7103C65.9839 71.8497 66.0269 72.0019 66.0393 72.158C66.08 72.4365 66.0924 72.7185 66.0765 72.9996C66.0765 76.4096 66.0765 79.8196 66.0765 83.2296V84.2526H69.8988C70.8288 84.2526 71.7588 84.2526 72.6888 84.2526C74.5023 84.1875 75.2742 83.3505 75.0556 81.551C74.8836 80.1281 74.5906 78.7238 74.293 77.3195C73.8931 75.2781 73.47 73.2414 73.0608 71.2001C72.8701 70.2422 73.2328 69.554 73.9908 69.4052C74.7487 69.2564 75.3532 69.7167 75.5439 70.6839C76.2135 74.018 76.9017 77.3474 77.5201 80.6907C77.9851 83.1599 77.1807 85.1687 75.3997 86.108C74.7875 86.383 74.1566 86.6145 73.5118 86.8008H43.4728C42.859 86.4102 42.408 85.9127 42.673 85.1315C42.9381 84.3503 43.5379 84.2619 44.2401 84.2619C48.1554 84.2619 52.0691 84.2619 55.9813 84.2619C56.9764 84.2619 57.3205 83.9364 57.3205 82.9646C57.3205 79.784 57.3205 76.6034 57.3205 73.4228C57.3205 72.2184 57.0183 71.9534 55.8 71.9534L37.1349 71.9999C35.9491 71.9999 35.7073 72.2417 35.7027 73.4414C35.7027 76.4825 35.7027 79.5236 35.7027 82.5647C35.7027 84.0527 35.9166 84.2758 37.3999 84.2712C38.1114 84.2712 38.7949 84.3224 39.0879 85.0896C39.3808 85.8569 38.9158 86.3451 38.409 86.8101H19.4835C18.6279 86.4242 17.6514 86.1824 16.9306 85.6197C15.2892 84.3503 15.1218 82.4763 15.4798 80.621C16.6888 74.3853 17.9722 68.1636 19.2649 61.9466C19.9252 58.7939 21.9759 56.8316 24.9379 55.8086C29.095 54.3438 33.2661 52.9116 37.4418 51.4794C37.6818 51.4128 37.8925 51.2675 38.0401 51.0668C38.1877 50.8661 38.2635 50.6217 38.2555 50.3727C38.4183 48.8103 38.0044 47.8106 36.549 46.8248C32.7313 44.2301 30.504 40.4775 29.7879 35.8833C29.7507 35.6648 29.6995 35.4462 29.6995 35.4183C28.5324 34.9905 27.4164 34.7441 26.4771 34.2047C25.5578 33.6739 24.8586 32.832 24.5056 31.8309C24.1526 30.8298 24.169 29.7356 24.552 28.7456C24.6611 28.3995 24.7175 28.0389 24.7194 27.6761C24.7891 24.8861 24.7194 22.0961 24.924 19.3293C25.2433 15.8647 26.4686 12.5451 28.4766 9.7038C28.557 9.54554 28.6697 9.40589 28.8074 9.29389C28.9452 9.18189 29.1048 9.10002 29.2762 9.05357C29.4475 9.00712 29.6267 8.99712 29.8021 9.02422C29.9776 9.05132 30.1454 9.11492 30.2947 9.21091C30.8992 9.60151 31.0108 10.299 30.6016 11.0709C29.8623 12.4659 29.0392 13.8609 28.4254 15.3396C27.4954 17.6042 27.2862 20.0268 27.2629 22.4588C27.2629 23.6027 27.2629 24.7466 27.2629 25.9091L29.374 25.5464C30.0576 24.3885 30.5319 23.2214 31.3224 22.3193C32.7825 20.6639 34.7448 20.1477 36.9024 20.4593C39.9542 20.9019 43.0648 20.7023 46.035 19.8734C48.3959 19.2218 50.6072 18.1161 52.545 16.6184C52.8565 16.3766 53.1541 16.1162 53.475 15.893C54.7072 15.0513 56.2371 15.2606 57.0322 16.5161C58.0738 18.1575 59.413 19.2131 61.38 19.52C62.4634 19.692 62.9424 20.45 62.9749 21.6776C63.0075 22.9052 62.9749 24.2072 62.9749 25.5045L65.2023 25.923C65.2337 25.798 65.254 25.6704 65.2627 25.5417C65.2627 22.7517 65.3139 19.9106 65.2302 17.102C65.1651 14.9909 64.821 12.7589 63.2725 11.3081C60.0175 8.25766 56.9206 4.93756 52.3543 3.69135C46.1512 2.0034 40.3899 2.76135 35.0842 6.48135C34.8982 6.61155 34.7215 6.7464 34.5309 6.8673C33.7776 7.3323 33.0894 7.28581 32.6709 6.69061C32.5676 6.5455 32.4952 6.38067 32.4584 6.2064C32.4216 6.03213 32.4211 5.85214 32.4568 5.67764C32.4926 5.50315 32.5639 5.33789 32.6663 5.19216C32.7688 5.04643 32.9001 4.92336 33.0522 4.83061C34.8014 3.40952 36.7968 2.32196 38.9391 1.6221C40.8084 1.0548 42.7474 0.720005 44.64 0.255005H48.36ZM60.45 21.9054C59.2956 21.6954 58.2032 21.2287 57.2534 20.5397C56.3037 19.8507 55.5209 18.9572 54.963 17.925C54.7305 18.1017 54.591 18.1994 54.4608 18.3063C50.9603 21.1979 46.6176 22.8782 42.0825 23.0958C40.2582 23.1787 38.4302 23.1243 36.6141 22.9331C33.9868 22.6866 32.1826 24.17 32.1129 26.8112C32.0757 28.2759 32.0478 29.7407 32.0524 31.2054C32.0524 34.0884 32.257 36.9482 33.5637 39.5754C34.908 42.193 37.0243 44.3342 39.6259 45.709C42.2276 47.0839 45.1889 47.626 48.1089 47.2619C53.833 46.5132 58.9852 42.0725 60.0315 36.4227C60.915 31.6425 60.3942 26.7879 60.4779 21.9054H60.45ZM29.4577 76.7196H33.1777C33.1777 75.7571 33.1777 74.8596 33.1777 73.9622C33.1777 73.2647 33.2614 72.5672 33.3405 71.8697C33.4866 71.1085 33.5921 70.3402 33.6567 69.5679C33.6892 65.1783 33.6567 60.7887 33.6567 56.3945V55.4645C33.5192 55.4712 33.3824 55.4883 33.2475 55.5156C30.6202 56.4456 27.9744 57.2966 25.375 58.2731C24.4237 58.5976 23.5769 59.1713 22.9226 59.9343C22.2684 60.6974 21.8306 61.6218 21.655 62.6115C20.9792 65.8882 20.3158 69.1665 19.6648 72.4463C19.0882 75.3107 18.4744 78.1704 17.9722 81.0488C17.5909 83.2668 18.4093 84.1922 20.6134 84.2108C22.3572 84.2108 24.1009 84.2108 25.8447 84.2108H26.9235C26.9235 80.2443 26.9235 76.4174 26.9235 72.5858C26.9235 71.5953 27.4117 71.0234 28.1929 71.0234C28.9741 71.0234 29.4438 71.5953 29.4484 72.5904C29.4624 73.9436 29.4577 75.2921 29.4577 76.7196ZM40.8223 58.301V69.2982H42.0174C42.0174 68.717 41.9895 68.1869 42.0174 67.6614C42.129 65.8386 43.2357 64.7877 45.0631 64.7505C45.9606 64.7505 46.8627 64.7505 47.7601 64.7505C49.8387 64.7505 50.9314 65.8386 51.0151 67.9079C51.0151 68.3729 51.0151 68.8379 51.0151 69.3029H52.2334V58.1429C50.437 58.9248 48.5029 59.3415 46.5438 59.3687C44.5847 59.3958 42.6398 59.0329 40.8223 58.301ZM52.2567 48.8754C48.5615 50.2586 44.5014 50.3194 40.7665 49.0475C40.7665 51.1307 40.7665 53.1209 40.7665 55.0925C40.7923 55.2052 40.8428 55.3108 40.9144 55.4017C40.9859 55.4926 41.0768 55.5664 41.1804 55.6179C42.8387 56.4396 44.6692 56.8535 46.5197 56.8252C48.3702 56.7969 50.1872 56.3272 51.8196 55.4552C51.9212 55.4006 52.0097 55.3245 52.0788 55.2321C52.1478 55.1397 52.1959 55.0333 52.2195 54.9204C52.266 52.9535 52.2567 50.94 52.2567 48.8754ZM38.1997 64.6854V53.8463C37.8481 53.9737 37.4895 54.0808 37.1256 54.1671C36.4141 54.3113 36.163 54.6647 36.1956 55.4366C36.256 58.1057 36.1956 60.7748 36.1956 63.4439V64.704L38.1997 64.6854ZM56.7997 64.6854C56.7997 61.356 56.7997 58.1243 56.7997 54.8925C56.7845 54.7809 56.7427 54.6746 56.678 54.5823C56.6133 54.4901 56.5275 54.4147 56.4277 54.3624C55.9255 54.1392 55.3861 53.9997 54.8467 53.8184V64.704L56.7997 64.6854ZM29.5089 79.3562V84.1643H33.1452V79.3562H29.5089ZM63.5283 79.3562H59.8408V84.1364H63.5283V79.3562ZM29.5275 28.155C29.0609 28.1157 28.5922 28.2014 28.1697 28.4033C27.7472 28.6051 27.386 28.9159 27.1234 29.3036C26.9099 29.6063 26.7952 29.9677 26.7952 30.3382C26.7952 30.7087 26.9099 31.0701 27.1234 31.3728C27.3808 31.77 27.7426 32.0886 28.1691 32.2937C28.5957 32.4987 29.0705 32.5824 29.5414 32.5353L29.5275 28.155ZM63.0075 32.5307C63.4783 32.5785 63.9533 32.4947 64.3793 32.2886C64.8054 32.0826 65.1659 31.7623 65.4208 31.3635C65.6427 31.0507 65.7568 30.6742 65.7459 30.2909C65.735 29.9075 65.5997 29.5381 65.3604 29.2385C65.1067 28.8626 64.7552 28.5631 64.3439 28.3722C63.9325 28.1812 63.4769 28.1062 63.0261 28.155L63.0075 32.5307ZM48.36 69.3075C48.6762 67.3452 48.625 67.2801 46.7883 67.2801H46.207C44.3842 67.2801 44.3052 67.3871 44.6493 69.3075H48.36ZM36.27 67.3173V69.2982H38.1858V67.3173H36.27ZM54.8374 69.3261H56.7765V67.3499H54.8235L54.8374 69.3261Z" fill="#322C2D"/>
<path d="M46.5 73.3297C47.4531 73.3279 48.3853 73.6094 49.1781 74.1385C49.9709 74.6676 50.5885 75.4203 50.9526 76.3012C51.3167 77.182 51.4108 78.1512 51.2229 79.0856C51.035 80.02 50.5736 80.8775 49.8974 81.5492C49.2211 82.2209 48.3605 82.6764 47.4248 82.8579C46.4892 83.0394 45.5206 82.9388 44.6423 82.5687C43.7639 82.1986 43.0154 81.5759 42.4917 80.7795C41.9681 79.9831 41.6929 79.0491 41.7012 78.096C41.7098 76.8289 42.2192 75.6167 43.1182 74.7237C44.0172 73.8308 45.2329 73.3297 46.5 73.3297ZM46.5 80.407C46.9483 80.4106 47.3876 80.2815 47.7628 80.0361C48.138 79.7907 48.4322 79.4398 48.6086 79.0277C48.7849 78.6155 48.8355 78.1604 48.7539 77.7196C48.6724 77.2787 48.4623 76.8719 48.1502 76.5501C47.838 76.2283 47.4377 76.0059 46.9996 75.911C46.5615 75.816 46.105 75.8527 45.6877 76.0164C45.2703 76.1801 44.9107 76.4636 44.6539 76.8311C44.3972 77.1986 44.2549 77.6338 44.2448 78.082C44.2386 78.3832 44.2922 78.6826 44.4025 78.9629C44.5128 79.2432 44.6776 79.4988 44.8873 79.7151C45.097 79.9313 45.3475 80.1038 45.6244 80.2225C45.9012 80.3413 46.1988 80.404 46.5 80.407Z" fill="#322C2D"/>
<path d="M46.9875 44.9198C45.4378 44.9082 43.9287 44.4232 42.6625 43.5298C42.5076 43.4364 42.3728 43.3133 42.2658 43.1675C42.1587 43.0218 42.0816 42.8563 42.0389 42.6806C41.9961 42.5049 41.9885 42.3225 42.0166 42.1438C42.0447 41.9652 42.1079 41.7939 42.2025 41.6398C42.2956 41.4834 42.4203 41.3481 42.5687 41.2426C42.717 41.137 42.8857 41.0636 43.064 41.0269C43.2423 40.9902 43.4263 40.9911 43.6042 41.0294C43.7822 41.0678 43.9502 41.1429 44.0975 41.2498C44.9365 41.858 45.9462 42.1856 46.9825 42.1856C48.0188 42.1856 49.0285 41.858 49.8675 41.2498C50.0108 41.149 50.1731 41.0785 50.3445 41.0425C50.5159 41.0065 50.6928 41.0058 50.8645 41.0404C51.0362 41.0751 51.199 41.1443 51.3431 41.2439C51.4872 41.3435 51.6095 41.4714 51.7025 41.6198C51.8033 41.77 51.8732 41.9389 51.9082 42.1164C51.9431 42.2939 51.9424 42.4766 51.9061 42.6539C51.8698 42.8312 51.7987 42.9994 51.6968 43.1489C51.5948 43.2984 51.4642 43.4262 51.3125 43.5248C50.0461 44.4186 48.5374 44.9052 46.9875 44.9198Z" fill="#322C2D"/>
<path d="M54.0888 73.0043C54.6064 73.1971 55.0959 73.4583 55.5442 73.7808C55.6441 73.9001 55.7181 74.0388 55.7616 74.1881C55.8052 74.3375 55.8172 74.4942 55.7971 74.6484C55.777 74.8027 55.7252 74.9511 55.6448 75.0843C55.5645 75.2175 55.4574 75.3326 55.3304 75.4223C54.7538 75.8873 53.2565 75.8873 52.7124 75.3897C52.5922 75.2923 52.4929 75.1716 52.4205 75.0349C52.3481 74.8982 52.304 74.7482 52.291 74.5941C52.278 74.4399 52.2962 74.2847 52.3447 74.1377C52.3931 73.9908 52.4707 73.8552 52.5729 73.739C53.0436 73.4283 53.5533 73.1812 54.0888 73.0043Z" fill="#322C2D"/>
</g>
<defs>
<clipPath id="clip0_0_121">
<rect width="90" height="90" fill="white"/>
</clipPath>
</defs>
</svg>
