<svg width="13" height="12" viewBox="0 0 13 12" fill="none" xmlns="http://www.w3.org/2000/svg">
<path d="M5.93655 0.256458C6.04766 -0.0854982 6.53144 -0.0854976 6.64255 0.256459L7.87284 4.04292C7.92253 4.19585 8.06504 4.29939 8.22584 4.29939H12.2072C12.5667 4.29939 12.7162 4.75949 12.4253 4.97083L9.20437 7.31099C9.07428 7.40551 9.01985 7.57304 9.06954 7.72596L10.2998 11.5124C10.4109 11.8544 10.0196 12.1387 9.72867 11.9274L6.50771 9.58724C6.37762 9.49272 6.20147 9.49272 6.07139 9.58724L2.85043 11.9274C2.55954 12.1387 2.16816 11.8544 2.27927 11.5124L3.50956 7.72596C3.55925 7.57304 3.50482 7.40551 3.37473 7.31099L0.153771 4.97083C-0.137114 4.75949 0.0123818 4.29939 0.371936 4.29939H4.35326C4.51406 4.29939 4.65657 4.19585 4.70626 4.04292L5.93655 0.256458Z" fill="#FFD800"/>
</svg>
