<svg width="27" height="27" viewBox="0 0 27 27" fill="none" xmlns="http://www.w3.org/2000/svg">
<path d="M17.4375 15.75H16.5487L16.2337 15.4462C16.9368 14.6294 17.4506 13.6673 17.7385 12.6288C18.0263 11.5902 18.081 10.5009 17.8987 9.43871C17.37 6.3112 14.76 3.81369 11.61 3.43118C10.5025 3.29108 9.37772 3.40618 8.32161 3.76766C7.26549 4.12914 6.30607 4.72744 5.51675 5.51675C4.72744 6.30607 4.12914 7.26549 3.76766 8.32161C3.40618 9.37772 3.29108 10.5025 3.43118 11.61C3.81369 14.76 6.3112 17.37 9.43871 17.8987C10.5009 18.081 11.5902 18.0263 12.6288 17.7385C13.6673 17.4506 14.6294 16.9368 15.4462 16.2337L15.75 16.5487V17.4375L20.5312 22.2188C20.9925 22.68 21.7463 22.68 22.2075 22.2188C22.6688 21.7575 22.6688 21.0038 22.2075 20.5425L17.4375 15.75ZM10.6875 15.75C7.8862 15.75 5.62494 13.4887 5.62494 10.6875C5.62494 7.8862 7.8862 5.62494 10.6875 5.62494C13.4887 5.62494 15.75 7.8862 15.75 10.6875C15.75 13.4887 13.4887 15.75 10.6875 15.75Z" fill="#FBFAFA"/>
</svg>
