<svg width="43" height="35" viewBox="0 0 43 35" fill="none" xmlns="http://www.w3.org/2000/svg">
<path d="M6.32635 33.1431C6.32635 33.1431 5.1761 30.1399 3.53289 26.6241C2.054 23.5476 0 21.0572 0 21.0572C0 21.0572 11.9954 26.917 16.2678 28.089C20.4579 29.1877 29.9886 31.6049 32.3712 31.6049C34.7539 31.5317 33.275 29.3342 32.0426 27.21C30.728 25.0859 34.5074 28.675 35.9041 29.1877C37.3009 29.7005 31.7139 23.1814 33.1928 23.3279C34.6717 23.4744 39.3549 27.7228 39.1905 26.5508C39.0262 25.4521 34.836 21.4235 35.5755 21.7165C36.3149 22.0827 39.6835 22.6687 39.6835 22.6687C39.6835 22.6687 36.9722 8.16563 35.9041 5.60196C34.7539 3.03828 31.221 2.01282 31.221 2.01282C31.221 2.01282 35.5755 -0.550854 37.383 0.108375C39.2727 0.840853 38.6976 1.86632 38.6976 1.86632C38.6976 1.86632 42.3948 14.6847 42.8878 21.863C43.3807 29.1145 42.1483 30.8724 41.1624 32.6304C39.437 35.8533 13.8851 35.4138 6.32635 33.1431Z" fill="#012C20"/>
</svg>
