<svg width="8" height="13" viewBox="0 0 8 13" fill="none" xmlns="http://www.w3.org/2000/svg">
<path d="M7.09094 12.3952C6.18808 12.8342 4.38235 12.9806 3.72572 12.9806C3.56157 13.0538 3.47949 12.9074 3.39742 12.7611C3.39742 12.6147 3.56157 12.5415 3.72572 12.5415C5.36729 12.3952 6.92678 12.0293 7.09094 11.8098C6.68055 11.0049 0.114278 0.467753 0.0322002 0.394579C-0.0498781 0.24823 0.0321977 0.101881 0.196354 0.0287066C0.360511 -0.0444679 0.524667 0.0287072 0.606746 0.175056C0.852981 0.614103 7.17301 10.7854 7.5834 11.5903C7.63812 11.7366 7.63812 11.883 7.5834 12.0293C7.47396 12.1757 7.30981 12.2976 7.09094 12.3952Z" fill="#012C20"/>
</svg>
