<svg width="13" height="10" viewBox="0 0 13 10" fill="none" xmlns="http://www.w3.org/2000/svg">
<path d="M7.26369 7.2761C3.9175 8.87684 0.571309 9.24064 0.326465 9.3134C0.163236 9.3134 0 9.16788 0 9.09512C0 8.9496 0.0816169 8.80408 0.244846 8.80408C0.32646 8.80408 7.83499 7.93095 11.426 3.71081C12.3238 2.61939 12.6502 1.74626 12.3238 1.23694C11.9157 0.509327 10.365 0.509327 10.365 0.509327C10.2018 0.509327 10.1202 0.436566 10.1202 0.291044C10.1202 0.145522 10.2018 0 10.365 0C10.4466 0 12.2422 4.33689e-07 12.8135 1.01865C13.2487 1.74626 12.9223 2.74066 11.8341 4.00185C10.6099 5.45707 8.9776 6.54849 7.26369 7.2761Z" fill="#012C20"/>
</svg>
