<svg width="19" height="13" viewBox="0 0 19 13" fill="none" xmlns="http://www.w3.org/2000/svg">
<path d="M18.4031 4.08241C18.4031 4.08241 17.6671 8.01902 15.8682 11.0808C14.0692 14.1426 13.3333 13.122 13.7421 10.935C14.2328 8.74802 13.9875 7.36291 13.9875 7.36291C13.9875 7.36291 12.1067 8.74802 11.5343 10.1331C11.2073 10.7892 12.9244 11.664 12.5156 11.8827C10.4713 12.9762 8.34528 10.7163 8.34528 10.7163C8.34528 10.7163 7.52758 11.8827 6.70987 11.664C4.82915 11.2995 6.13748 9.62282 6.13748 9.62282C6.13748 9.62282 4.58384 10.7892 4.17498 9.47702C3.8479 8.16482 4.01145 8.23771 4.01145 8.23771C4.01145 8.23771 -0.158854 11.0079 0.00468729 9.25832C0.168228 7.50872 13.4151 0 13.4151 0L18.4031 4.08241Z" fill="#FFB68E"/>
</svg>
