<svg width="26" height="14" viewBox="0 0 26 14" fill="none" xmlns="http://www.w3.org/2000/svg">
<path d="M0.514513 2.77419L12.0396 13.6452C12.1768 13.7742 12.3254 13.8654 12.4855 13.9187C12.6456 13.9729 12.8171 14 13 14C13.1829 14 13.3544 13.9729 13.5145 13.9187C13.6746 13.8654 13.8232 13.7742 13.9604 13.6452L25.5198 2.77419C25.8399 2.47312 26 2.09677 26 1.64516C26 1.19355 25.8285 0.806451 25.4855 0.48387C25.1425 0.161289 24.7423 -1.06395e-08 24.285 -1.45084e-08C23.8276 -1.83773e-08 23.4274 0.161289 23.0844 0.48387L13 9.96774L2.91557 0.483869C2.59543 0.182794 2.2012 0.0322569 1.73288 0.0322569C1.26364 0.0322569 0.857521 0.193547 0.514513 0.516128C0.171505 0.838709 2.14912e-07 1.21505 2.07682e-07 1.64516C2.00452e-07 2.07527 0.171505 2.45161 0.514513 2.77419Z" fill="#322C2D"/>
</svg>
