<svg width="12" height="11" viewBox="0 0 12 11" fill="none" xmlns="http://www.w3.org/2000/svg">
<path d="M5.44162 0.235122C5.54347 -0.0783371 5.98693 -0.0783377 6.08878 0.235121L7.21654 3.70603C7.26209 3.84622 7.39273 3.94113 7.54012 3.94113H11.1897C11.5192 3.94113 11.6563 4.36289 11.3896 4.55661L8.43711 6.70176C8.31786 6.78839 8.26796 6.94196 8.31351 7.08215L9.44128 10.5531C9.54313 10.8665 9.18436 11.1272 8.91771 10.9335L5.96518 8.78831C5.84593 8.70167 5.68446 8.70167 5.56521 8.78831L2.61268 10.9335C2.34603 11.1272 1.98727 10.8665 2.08911 10.5531L3.21688 7.08215C3.26243 6.94196 3.21253 6.78839 3.09329 6.70176L0.140751 4.55661C-0.125893 4.36289 0.0111439 3.94113 0.340734 3.94113H3.99027C4.13767 3.94113 4.2683 3.84622 4.31385 3.70604L5.44162 0.235122Z" fill="#FFD800"/>
</svg>
