<svg width="42" height="42" viewBox="0 0 42 42" fill="none" xmlns="http://www.w3.org/2000/svg">
<path d="M25.1202 22.0853C25.5096 21.8628 25.75 21.4486 25.75 21C25.75 20.5514 25.5096 20.1372 25.1202 19.9147L18.9952 16.4147C18.6083 16.1936 18.133 16.1952 17.7476 16.4189C17.3622 16.6425 17.125 17.0544 17.125 17.5V24.5C17.125 24.9456 17.3622 25.3575 17.7476 25.5811C18.133 25.8048 18.6083 25.8064 18.9952 25.5853L25.1202 22.0853Z" stroke="white" stroke-width="2.5" stroke-linecap="round" stroke-linejoin="round"/>
<path d="M4.18745 9.66016L4.18744 9.66017C3.13711 10.7407 2.67611 12.079 2.45915 13.6905C2.24994 15.2444 2.24997 17.214 2.25 19.6694L2.25 19.761V22.2372V22.239L2.25 22.3305C2.24997 24.785 2.24994 26.7542 2.45915 28.3081C2.67611 29.9196 3.13708 31.258 4.18697 32.3393L4.18745 32.3397C5.23587 33.4183 6.54843 33.9186 8.1387 34.1814C9.66863 34.4341 11.6103 34.4886 14.0265 34.5564L14.1156 34.5589C14.1162 34.5589 14.1169 34.5589 14.1175 34.5589C16.4098 34.6294 18.7029 34.6681 20.9962 34.675H21C23.0852 34.675 25.5133 34.6274 27.8821 34.5589L27.9582 34.5568C30.3826 34.4888 32.3292 34.4342 33.8622 34.1807C35.4522 33.9177 36.7639 33.4173 37.8121 32.3402L37.813 32.3393C38.8629 31.2581 39.3239 29.9202 39.5409 28.3085C39.7501 26.7546 39.75 24.785 39.75 22.3289V22.2372V19.761V19.6693C39.75 17.2149 39.7501 15.2452 39.5406 13.691C39.3235 12.0797 38.8621 10.741 37.8113 9.66065C36.7636 8.58173 35.4512 8.08134 33.8613 7.81836C32.3332 7.56561 30.3939 7.51055 27.9812 7.44204L27.8815 7.43921L27.8811 7.4392C25.5114 7.37254 23.0834 7.32495 21 7.32495C18.9149 7.32495 16.4869 7.37254 14.1188 7.4392L14.1185 7.43921L14.0188 7.44204C11.6061 7.51055 9.66679 7.56561 8.13851 7.81836C6.54837 8.08134 5.23585 8.58167 4.18745 9.66016Z" stroke="white" stroke-width="2.5"/>
</svg>
