<svg width="90" height="90" viewBox="0 0 90 90" fill="none" xmlns="http://www.w3.org/2000/svg">
<g clip-path="url(#clip0_0_93)">
<g clip-path="url(#clip1_0_93)">
<path d="M33.4779 86.9819C31.6179 86.2369 30.9754 84.7831 31.0007 82.7016C31.0726 76.7732 31.0219 70.8448 31.0261 64.9164C31.0261 59.295 33.7357 55.0688 38.635 53.037C43.2342 51.118 47.825 49.181 52.4749 47.2802C52.7125 47.2144 52.9212 47.062 53.0648 46.8493C53.2084 46.6365 53.2778 46.3769 53.2611 46.1152C53.3526 45.429 53.2716 44.729 53.0265 44.0872C52.7814 43.4453 52.3809 42.8846 51.8661 42.4625C50.0315 40.7964 49.0086 38.5072 48.5267 35.9742C48.4928 35.8162 48.459 35.6581 48.4168 35.5227C48.39 35.4592 48.3574 35.3987 48.3195 35.3421C46.8041 35.4113 45.3243 34.8385 44.2022 33.7482C43.1571 32.7228 42.5204 31.3078 42.4236 29.7954C42.3269 28.2831 42.7774 26.7887 43.6823 25.6209C43.9339 25.2664 44.0691 24.8332 44.067 24.3883C43.9909 21.4941 43.8303 18.6044 43.7457 15.7102C43.6696 12.974 44.7137 11.502 47.1824 10.59C47.6067 10.4286 47.9614 10.1075 48.18 9.68695C49.9005 5.62331 53.0117 3.7134 57.0106 3.18061C57.2064 3.13096 57.3997 3.07068 57.5898 3H61.1195L67.2912 4.20555C68.4452 4.43131 69.595 4.71124 70.7575 4.83767C71.9141 4.95813 73.0761 4.67282 74.0674 4.02494C74.3106 3.85514 74.5872 3.74782 74.8758 3.71138C75.1643 3.67494 75.4568 3.71038 75.7303 3.81492C76.0039 3.91946 76.251 4.09026 76.4524 4.31392C76.6538 4.53758 76.804 4.80803 76.8911 5.10406C78.0492 8.18991 78.3772 11.56 77.838 14.8342C77.5041 16.9564 77.3392 19.1056 77.1067 21.2412C77.0518 21.756 77.056 22.2797 77.0179 22.7945C76.9207 24.0406 76.9841 25.1152 77.7366 26.2982C80.1038 30.0052 77.5802 35.0396 73.3614 35.2924C73.1332 35.2924 72.9049 35.2924 72.6513 35.2924C72.5244 35.8478 72.4272 36.3535 72.2919 36.8456C71.6279 39.3313 70.2715 41.5423 68.4029 43.1849C68.1897 43.3487 68.019 43.5675 67.9066 43.821C67.7942 44.0745 67.7439 44.3544 67.7604 44.6343C67.7984 46.9686 67.7604 46.9641 69.8021 47.7949C74.111 49.5769 78.42 51.3634 82.7289 53.1544C84.8442 54.021 86.6667 55.547 87.9595 57.5342C89.2523 59.5214 89.9558 61.878 89.9785 64.2978C90.0081 66.158 89.9785 68.0183 89.9785 69.874C89.9785 70.8132 89.5093 71.3821 88.7991 71.364C88.089 71.346 87.6958 70.7996 87.6789 69.9011C87.6367 67.5803 87.8015 65.2279 87.5014 62.9478C87.0279 59.3672 85.1046 56.8026 81.9004 55.4571C79.0724 54.2651 76.2317 53.1137 73.4037 51.9172C73.2187 51.8098 73.0059 51.7698 72.7976 51.8032C72.5894 51.8366 72.397 51.9416 72.2497 52.1023C70.6772 53.5427 69.0412 54.9108 67.4772 56.3647C66.6317 57.1593 65.7271 57.5657 64.6365 57.1684C64.3266 57.4784 64.0946 57.8666 63.9616 58.2973C63.8287 58.728 63.7991 59.1875 63.8756 59.6336C64.5012 65.6614 65.0761 71.6936 65.6679 77.7259C65.8877 79.9518 66.0907 82.1778 66.3147 84.4489H78.4425V63.9546C78.4303 63.6535 78.4374 63.3517 78.4636 63.0516C78.4807 62.7744 78.5951 62.5144 78.784 62.3235C78.9729 62.1326 79.2224 62.025 79.4824 62.0221C79.7389 61.9746 80.0027 62.0337 80.2197 62.1873C80.4366 62.341 80.5903 62.5776 80.6491 62.8484C80.7247 63.193 80.756 63.5469 80.7421 63.9005C80.7421 70.4083 80.7421 76.9146 80.7421 83.4195V84.5167H86.4235C87.4295 84.5167 87.6916 84.2503 87.6916 83.1621C87.6916 80.9045 87.6916 78.6244 87.6916 76.3533C87.6916 75.2696 88.1143 74.6781 88.8583 74.6917C89.6023 74.7052 89.9954 75.2922 89.9954 76.3939C89.9954 78.498 89.9278 80.6065 89.9954 82.7151C90.0631 84.8237 89.3867 86.2595 87.5225 87H50.6783C50.1964 86.5485 49.7906 86.0699 50.0696 85.3249C50.3486 84.5799 50.9531 84.5257 51.5998 84.5347C52.6186 84.5347 53.6331 84.5347 54.6857 84.5347C54.9097 82.2275 55.1084 80.0196 55.3367 77.762C55.9285 71.7072 56.5076 65.6478 57.1375 59.593C57.203 59.1574 57.1679 58.7113 57.0353 58.2934C56.9027 57.8756 56.6766 57.4987 56.3766 57.1954C55.2521 57.6154 54.3517 57.1593 53.4767 56.3466C51.9338 54.9243 50.319 53.5698 48.7676 52.1385C48.6116 51.9683 48.4078 51.8573 48.1873 51.8222C47.9668 51.7872 47.7416 51.8301 47.546 51.9443C44.8194 53.1183 42.076 54.229 39.341 55.3758C35.5069 56.9787 33.3384 60.3877 33.3299 64.8125C33.3299 68.5059 33.3299 72.1963 33.3299 75.8837C33.3299 78.3715 33.3299 80.8504 33.3299 83.3427C33.3299 83.9703 33.5159 84.4896 34.1458 84.4986C36.1621 84.5392 38.1743 84.4986 40.2667 84.4986V83.4601C40.2667 76.8981 40.2667 70.3391 40.2667 63.7831C40.254 63.4306 40.2954 63.0782 40.3893 62.7401C40.4653 62.489 40.6245 62.2761 40.8369 62.1414C41.0494 62.0068 41.3006 61.9595 41.5433 62.0086C41.7901 62.0174 42.0257 62.12 42.2079 62.298C42.39 62.476 42.5066 62.7176 42.5367 62.9794C42.5723 63.2788 42.5822 63.581 42.5663 63.8824V84.5121C43.6738 84.5121 44.6799 84.4851 45.7114 84.5121C45.8981 84.5023 46.0842 84.5424 46.2526 84.629C46.4211 84.7156 46.5666 84.8459 46.6758 85.0079C46.7851 85.17 46.8546 85.3586 46.8782 85.5567C46.9017 85.7548 46.8784 85.9561 46.8104 86.1421C46.6516 86.4496 46.4539 86.7322 46.2228 86.9819H33.4779ZM50.5557 27.9417C50.5557 29.6936 50.5557 31.441 50.5557 33.1883C50.5679 33.9258 50.6444 34.6604 50.784 35.3827C51.2867 37.9479 52.6594 40.2241 54.6382 41.7738C56.617 43.3235 59.0622 44.0372 61.5038 43.7779C63.9454 43.5185 66.2111 42.3044 67.8654 40.3689C69.5197 38.4333 70.4459 35.9129 70.4658 33.2922C70.5081 29.6349 70.4658 25.9731 70.4658 22.3113C70.4658 20.7265 69.5696 19.9996 68.1028 20.3247C63.1046 21.4332 57.9465 21.4332 52.9483 20.3247C51.4307 19.9951 50.5684 20.7175 50.5642 22.3655C50.5473 24.2212 50.5515 26.086 50.5557 27.9417ZM74.879 6.45861C74.1773 6.69791 73.5812 6.95528 72.9641 7.10428C70.9646 7.5874 69.0032 7.23522 67.046 6.69791C63.6642 5.76779 60.2825 5.08149 56.812 5.63234C54.0009 6.08385 51.7013 7.4068 50.4712 10.2784C49.8625 11.6872 48.9959 12.6399 47.5586 13.0372C46.4849 13.3352 46.0326 14.0802 46.0242 15.2948C46.0242 16.2249 46.0242 17.155 46.0749 18.0806C46.1552 19.9318 46.2567 21.7785 46.3497 23.6433L48.2477 23.413C48.2477 22.9886 48.2477 22.5868 48.2477 22.1849C48.2942 19.1778 50.4796 17.286 53.24 17.891C58.0368 18.961 62.9889 18.961 67.7858 17.891C70.4954 17.295 72.6935 19.1733 72.7569 22.1307C72.7569 22.5822 72.7569 22.9841 72.7569 23.4221L74.6211 23.6252C74.6211 23.3905 74.6634 23.1737 74.6761 22.966C74.8748 19.8054 75.0143 16.6448 75.623 13.5339C76.0327 11.1487 75.7739 8.68731 74.879 6.45861ZM55.6199 45.2258C55.3494 46.6255 55.4466 47.7497 56.6725 48.4676C57.0752 48.7096 57.4333 49.0278 57.7293 49.4068C58.7142 50.6801 59.9993 50.9149 61.4238 50.7252C61.6429 50.7142 61.8556 50.6426 62.041 50.5175C63.0936 49.6145 64.1292 48.6708 65.1564 47.7272C65.3145 47.6017 65.4267 47.4213 65.4735 47.2169C65.5115 46.5984 65.4735 45.9753 65.4735 45.2258C62.3173 46.6129 58.7761 46.6129 55.6199 45.2258ZM63.994 84.4399C63.9437 84.1081 63.9127 83.7734 63.901 83.4375C63.919 82.9904 63.8386 82.5451 63.666 82.1373C63.4935 81.7295 63.2337 81.3706 62.9076 81.0897C61.6901 79.8931 60.5361 78.6108 59.3779 77.3376C58.9213 76.8364 58.5324 76.2765 58.1097 75.7437L57.8688 75.9198C57.7532 76.6945 57.677 77.4752 57.6405 78.2587C57.641 78.6722 57.7788 79.0722 58.0294 79.3874C59.3863 80.9045 60.8193 82.3494 62.1678 83.8755C62.3842 84.1543 62.674 84.3571 62.9996 84.4578C63.3252 84.5584 63.6717 84.5522 63.994 84.4399ZM72.8246 26.0002V32.8C73.2758 32.8395 73.7297 32.7771 74.1568 32.6168C74.5839 32.4565 74.9746 32.202 75.3036 31.8698C75.6325 31.5376 75.8923 31.1352 76.0661 30.6887C76.2398 30.2422 76.3236 29.7616 76.312 29.2782C76.3015 28.8123 76.2008 28.3537 76.0163 27.9313C75.8318 27.509 75.5674 27.132 75.2399 26.8241C74.9123 26.5162 74.5286 26.284 74.1129 26.1423C73.6972 26.0005 73.2586 25.9521 72.8246 26.0002ZM48.2012 32.8V26.0273C47.7671 25.9759 47.3278 26.0213 46.9109 26.1605C46.4941 26.2997 46.1088 26.5298 45.7795 26.8362C45.4501 27.1425 45.1839 27.5186 44.9975 27.9405C44.8112 28.3623 44.7088 28.8209 44.6968 29.2873C44.6376 31.2965 46.1679 32.8768 48.2012 32.8ZM57.1924 52.1114C56.1863 51.2083 55.2141 50.3414 54.2334 49.4971C54.1551 49.4421 54.0665 49.4059 53.9738 49.3911C53.8811 49.3763 53.7865 49.3832 53.6965 49.4113C52.7243 49.7906 51.7647 50.206 50.7037 50.6485C52.3311 52.0933 53.8698 53.4614 55.4593 54.8656L57.1924 52.1114ZM65.5792 54.8747L70.3094 50.6846C69.2272 50.2331 68.2888 49.8267 67.3504 49.4565C67.2597 49.4243 67.1635 49.4136 67.0686 49.4253C66.9736 49.437 66.8823 49.4708 66.8008 49.5242C65.8074 50.364 64.8394 51.2354 63.8418 52.1159C64.4167 53.0641 64.9704 53.9355 65.5792 54.8747ZM58.5874 69.7747C58.5401 69.8238 58.4963 69.8766 58.4563 69.9327C58.0632 71.5807 58.1816 72.9714 59.6019 74.1679C60.925 75.2877 62.0283 76.7054 63.381 78.1548C63.2753 76.9267 63.195 75.9379 63.0936 74.949C63.0778 74.7341 63.0012 74.5293 62.8738 74.3621C61.4492 72.8269 60.0204 71.3098 58.5747 69.7702L58.5874 69.7747ZM60.4558 56.9336C61.6775 57.3174 62.3623 56.6852 62.7977 55.579C62.8611 55.421 62.9583 55.1817 62.8949 55.0733C62.6026 54.4369 62.2205 53.8521 61.762 53.3395C61.4872 53.0866 60.8912 53.1995 60.4389 53.195C59.9866 53.1905 59.492 53.1047 59.2722 53.335C58.7719 53.8362 58.387 54.4544 58.1478 55.141C58.0463 55.4526 58.5367 55.9583 58.7269 56.3963C59.1116 57.3354 59.8767 56.8026 60.4431 56.9291L60.4558 56.9336ZM59.0693 63.4173C58.9546 64.2177 58.8798 65.0241 58.8452 65.8329C58.8492 66.2445 58.9867 66.6418 59.2341 66.9572C60.1684 68.0363 61.166 69.0568 62.1467 70.0953C62.3064 70.2556 62.4743 70.4063 62.6497 70.5468C62.544 69.5038 62.4595 68.6098 62.358 67.7203C62.32 67.3726 62.358 66.9121 62.1763 66.7044C61.204 65.5846 60.1641 64.5506 59.0693 63.4173ZM59.3398 59.4575C59.6611 61.0469 61.0307 61.5842 61.8761 62.6181L61.5549 59.4575H59.3398ZM59.1411 84.4806L57.2135 82.3629L57.0191 84.4806H59.1411Z" fill="#322C2D"/>
<path fill-rule="evenodd" clip-rule="evenodd" d="M0.177002 40.7581C1.5 43.3801 3.093 45.5731 5.841 46.6231C5.72379 46.9345 5.65695 47.2626 5.643 47.5951C5.77383 48.5232 5.54055 49.466 4.992 50.2261C4.8643 50.4821 4.65247 50.6866 4.392 50.8051C3.83983 51.0112 3.35058 51.3571 2.97201 51.8089C2.59345 52.2606 2.33852 52.8029 2.23213 53.3826C2.12573 53.9623 2.17151 54.5597 2.36499 55.1165C2.55847 55.6732 2.89303 56.1703 3.336 56.5591C3.46025 56.6537 3.55462 56.7821 3.60783 56.9289C3.66103 57.0758 3.67081 57.2348 3.636 57.3871C3.46624 58.7773 3.31928 60.1675 3.17232 61.5577C3.1271 61.9855 3.08189 62.4133 3.036 62.8411L1.893 73.4791C1.77722 74.5597 1.66303 75.6403 1.54797 76.7291C1.43944 77.7562 1.33013 78.7906 1.218 79.8391C1.59363 79.8277 1.96849 79.8359 2.34167 79.844C3.44378 79.8681 4.53114 79.8919 5.58 79.4101V81.5101C5.53513 81.5253 5.48893 81.5364 5.442 81.5431H2.268C2.02517 81.5299 1.78231 81.5683 1.55535 81.6556C1.32838 81.743 1.12245 81.8773 0.951061 82.0498C0.779671 82.2223 0.646695 82.4291 0.560859 82.6567C0.475024 82.8842 0.438267 83.1273 0.453002 83.3701V84.9841C0.450204 85.2094 0.492379 85.4331 0.577061 85.642C0.661742 85.8508 0.787229 86.0407 0.946178 86.2005C1.10513 86.3603 1.29435 86.4868 1.50277 86.5725C1.71119 86.6583 1.93463 86.7017 2.16 86.7001C6.176 86.7121 10.192 86.7121 14.208 86.7001C14.4388 86.7047 14.668 86.6622 14.8819 86.5754C15.0957 86.4886 15.2897 86.3591 15.4519 86.1949C15.6141 86.0307 15.7412 85.8353 15.8255 85.6204C15.9097 85.4055 15.9494 85.1757 15.942 84.9451V83.4931C15.936 82.2061 15.267 81.5311 13.986 81.5311H10.848C10.8263 81.4666 10.8102 81.4003 10.8 81.3331C10.8 80.5381 10.798 79.7447 10.796 78.9514C10.792 77.3647 10.788 75.7781 10.8 74.1781C10.8422 73.9876 10.948 73.8173 11.1 73.6951C11.3388 73.4801 11.58 73.2699 11.8207 73.0602C12.1848 72.7429 12.5478 72.4265 12.9 72.0961C13.1059 71.9199 13.251 71.6833 13.3146 71.4199C13.3781 71.1565 13.3569 70.8797 13.254 70.6291C13.1247 70.1455 13.0245 69.6546 12.954 69.1591C12.8251 68.5034 12.6972 67.8467 12.5698 67.1922C12.4867 66.7656 12.4039 66.3399 12.321 65.9161C19.77 63.2551 24.657 58.1911 27.12 50.6551C28.5965 55.1579 30.9303 58.7789 34.1476 61.5262C34.3341 60.927 34.5563 60.3631 34.8145 59.8316C33.3623 58.5092 32.0947 56.9666 31.011 55.2001C29.0176 51.9529 27.9712 48.2133 27.99 44.4031C27.99 44.313 27.992 44.2228 27.994 44.1328C27.998 43.9532 28.002 43.774 27.99 43.5961C27.933 42.8491 27.99 42.2131 28.71 41.7001C28.9993 41.4963 29.1904 41.1542 29.3978 40.7828C29.4959 40.6073 29.5976 40.4252 29.715 40.2481V40.8691C29.7243 41.4305 29.7206 41.9927 29.7169 42.555C29.7087 43.8047 29.7005 45.0547 29.835 46.2961C30.3717 51.2803 32.335 55.3061 35.6772 58.359C36.0077 57.8854 36.3746 57.4417 36.7779 57.0248C36.7475 56.9957 36.7172 56.9664 36.687 56.9371C33.258 53.5741 31.539 49.4731 31.437 44.6731C31.4212 43.7678 31.4262 42.8612 31.4314 41.9022C31.4342 41.4025 31.437 40.8885 31.437 40.3531C31.7371 40.4547 32.031 40.5529 32.3198 40.6494C33.1136 40.9147 33.8689 41.1671 34.608 41.4421C34.74 41.4901 34.86 41.7631 34.86 41.9341C34.8789 42.4255 34.8817 42.9185 34.8845 43.4115C34.8893 44.2459 34.894 45.0801 34.977 45.9061C35.3448 49.5072 36.9022 52.4868 39.5538 54.8701C40.2312 54.4684 40.965 54.0992 41.7552 53.7565C41.7884 53.5265 41.8715 53.3053 42 53.1091C42.468 52.3471 43.2 52.1851 44.1 52.2871C43.9272 52.5279 43.7916 52.7673 43.6923 53.0057C44.1727 52.8388 44.67 52.6785 45.1843 52.5239C45.9711 52.2874 46.763 52.0675 47.5475 51.862C46.49 51.19 45.4439 51.2218 44.382 52.0021L44.379 52.0171C44.268 51.1351 44.4 50.4181 45.162 49.9471C45.4295 49.7618 45.7471 49.6625 46.0725 49.6625C46.3979 49.6625 46.7155 49.7618 46.983 49.9471C47.6583 50.3843 47.851 51.0207 47.7779 51.802C48.7279 51.5562 49.6654 51.3313 50.5687 51.1233C50.3308 50.9623 50.0727 50.8309 49.8 50.7331C49.5783 50.6214 49.4038 50.4341 49.308 50.2051C49.012 49.5092 48.5239 48.9119 47.901 48.4831C47.662 48.3129 47.4742 48.0805 47.358 47.8111C44.814 41.5531 40.317 37.4671 33.795 35.6671C31.614 35.0611 29.376 35.0011 27.132 35.0221C27.0081 35.0182 26.8861 34.9897 26.7733 34.9382C26.6605 34.8867 26.5591 34.8132 26.475 34.7221C25.617 33.6751 24.549 33.1561 23.217 33.3451C22.5794 33.4206 21.977 33.6784 21.4822 34.0876C20.9874 34.4968 20.621 35.04 20.427 35.6521C20.3799 35.7965 20.2873 35.9218 20.163 36.0091C19.8431 36.1939 19.51 36.3451 19.1861 36.4921C19.0999 36.5312 19.0144 36.57 18.93 36.6091C18.8336 36.5591 18.7361 36.5112 18.6387 36.4635C18.4147 36.3536 18.1911 36.244 17.982 36.1081C17.7663 35.9885 17.5886 35.8107 17.469 35.5951C16.935 34.3051 15.981 33.5191 14.619 33.3511C13.257 33.1831 12.177 33.7381 11.379 34.8511L11.109 35.2111C8.691 33.3661 5.928 33.1591 3.042 33.3661C3.04034 33.6177 3.03628 33.8691 3.03222 34.12C3.00693 35.6852 2.98195 37.2308 3.543 38.6761L0.177002 40.7581ZM16.416 50.6341C17.67 52.2361 19.23 52.7191 21.252 51.7411C19.089 56.1541 15.828 59.1151 11.31 60.8101C11.1359 60.1612 11.0096 59.5004 10.932 58.8331C10.9209 58.6429 11.0394 58.4504 11.1601 58.2543C11.2355 58.1318 11.3119 58.0078 11.358 57.8821C11.4044 57.7156 11.4911 57.5631 11.6104 57.4381C11.7297 57.313 11.8779 57.2193 12.042 57.1651C12.7845 56.8781 13.4031 56.3403 13.7905 55.6449C14.1779 54.9495 14.3097 54.1404 14.163 53.3581C14.1677 53.1246 14.2241 52.8951 14.328 52.6861C14.3438 52.6328 14.3842 52.5873 14.4246 52.5419C14.4456 52.5183 14.4665 52.4947 14.484 52.4701C14.8364 51.9472 15.0192 51.6761 15.2479 51.4518C15.4942 51.2102 15.7937 51.023 16.416 50.6341ZM6.471 75.1291C6.468 76.9951 5.103 78.2071 3.132 78.0541L3.21979 77.2339C3.88928 70.9786 4.55614 64.748 5.223 58.4761C5.32515 58.5645 5.4261 58.6508 5.52563 58.7358C5.84117 59.0054 6.14249 59.2628 6.423 59.5411C6.48449 59.6002 6.47886 59.7357 6.47373 59.8596C6.47235 59.8928 6.471 59.9252 6.471 59.9551V75.1291ZM25.3062 47.0055C25.4599 46.3544 25.4231 45.6728 25.2 45.0421L26.205 44.3251C26.502 52.6231 20.727 61.4461 11.964 64.1461L11.628 62.5291L12.27 62.2741C18.198 59.8951 22.05 55.6321 23.868 49.5151C23.9598 49.2161 24.1189 48.9421 24.333 48.7141C24.8146 48.2497 25.1525 47.6566 25.3062 47.0055ZM28.65 36.8401C34.665 35.8621 43.788 41.9011 45.489 47.9401L44.097 48.5431C43.8467 48.1481 43.6072 47.7461 43.3682 47.3449C42.8539 46.4815 42.3415 45.6214 41.727 44.8411C40.3648 43.0526 38.641 41.5712 36.668 40.4934C34.695 39.4157 32.517 38.7658 30.276 38.5861C29.805 38.5471 29.49 38.4421 29.376 37.9471C29.2962 37.73 29.1817 37.5274 29.037 37.3471C28.9618 37.2323 28.8761 37.1253 28.7878 37.015C28.7422 36.9581 28.6959 36.9003 28.65 36.8401ZM40.158 53.0581C37.287 50.0791 36.315 46.5481 36.648 42.5011C37.8928 43.2715 39.0094 44.2322 39.957 45.3481C41.1507 46.7346 42.0728 48.3334 42.675 50.0611C42.798 50.4121 42.774 50.6071 42.375 50.7391C41.265 51.1051 40.578 51.9151 40.158 53.0581ZM8.226 72.8701V60.0421L9.342 59.8681C9.714 61.7101 10.08 63.5311 10.446 65.3551C10.5541 65.8936 10.6607 66.4323 10.7673 66.9711C11.001 68.1523 11.2347 69.3336 11.484 70.5121C11.5298 70.6712 11.5299 70.84 11.4843 70.9991C11.4387 71.1583 11.3491 71.3014 11.226 71.4121C10.4282 72.2353 9.36619 72.7514 8.226 72.8701ZM14.175 84.9511H2.196V83.2801H14.175V84.9511ZM8.883 41.6041L5.757 41.1001L5.478 42.7741L8.805 43.3441C8.6702 43.7312 8.49946 44.1048 8.295 44.4601C8.22082 44.5663 8.08222 44.6232 7.94042 44.6815C7.82989 44.7269 7.71742 44.7731 7.632 44.8441C7.077 45.3151 6.567 45.1231 6.015 44.8441C4.48898 44.0785 3.24835 42.8442 2.475 41.3221C4.14581 40.2282 6.06441 39.5712 8.055 39.4111L8.883 41.6041ZM4.668 35.0671C6.46412 34.9133 8.25991 35.3665 9.768 36.3541C9.66534 36.4688 9.56442 36.5825 9.46438 36.6953C9.21652 36.9746 8.97407 37.2479 8.724 37.5151C8.64692 37.5841 8.55065 37.628 8.448 37.6411C7.7662 37.742 7.08439 37.8369 6.36881 37.9365C5.95719 37.9938 5.5344 38.0526 5.094 38.1151L4.668 35.0671ZM17.757 38.6131C17.719 39.2825 17.719 39.9536 17.757 40.6231C16.9533 41.0554 16.3512 41.7857 16.08 42.6571C16.0688 42.7092 16.0506 42.7597 16.026 42.8071C15.708 43.2301 13.995 43.7101 13.53 43.5091C12.735 43.1821 12.384 42.4111 12.54 41.3821C14.088 42.1411 15.162 42.0661 16.059 41.1391C16.956 40.2121 17.013 39.1171 16.191 37.6171C16.514 37.616 16.8367 37.636 17.157 37.6771C17.814 37.8121 17.835 37.9501 17.757 38.6131ZM7.38 77.8621C8.00563 76.9156 8.29318 75.7855 8.196 74.6551C8.28856 74.6241 8.38269 74.5981 8.478 74.5771C8.59258 74.5598 8.70715 74.5487 8.83856 74.536C8.88952 74.5311 8.943 74.5259 9 74.5201V81.4981H7.338V78.0121C7.33855 77.9592 7.35304 77.9075 7.38 77.8621ZM7.371 58.0591C6.582 57.6271 6.39 56.8981 6.504 55.9591V55.9501C7.644 56.7721 8.76 56.7571 9.882 55.9531C9.999 56.8051 9.849 57.5041 9.144 57.9811C8.88987 58.1692 8.58532 58.2772 8.26942 58.2911C7.95352 58.305 7.64068 58.2242 7.371 58.0591ZM17.691 48.2191C18.804 48.9781 19.914 49.0531 21.066 48.1921C21.198 49.6051 20.547 50.5111 19.419 50.5351C18.291 50.5591 17.595 49.6651 17.691 48.2191ZM27.756 40.1941C27.291 40.9681 26.556 41.1571 25.656 41.0341C26.469 39.9001 26.463 38.7931 25.659 37.6651C26.478 37.5421 27.15 37.6771 27.645 38.3281C27.8497 38.5916 27.9698 38.9108 27.9896 39.2439C28.0094 39.5769 27.928 39.9082 27.756 40.1941ZM21.993 41.3341C23.118 42.1081 24.246 42.1471 25.374 41.3161C25.5 42.1771 25.341 42.8761 24.636 43.3591C24.3816 43.5468 24.0769 43.6542 23.761 43.6675C23.4451 43.6809 23.1324 43.5996 22.863 43.4341C22.071 42.9811 21.882 42.2521 21.993 41.3341ZM15.342 45.3301C15.807 44.5801 16.527 44.4331 17.4 44.5441C16.608 45.6691 16.596 46.8001 17.4 47.9161C16.554 48.0421 15.858 47.8921 15.378 47.1961C15.1774 46.928 15.066 46.6037 15.0595 46.2689C15.0531 45.9341 15.1519 45.6057 15.342 45.3301ZM9.102 49.9471C9.84 50.4151 10.005 51.1291 9.882 52.0021C8.757 51.2131 7.644 51.1801 6.51 52.0171C6.396 51.1591 6.531 50.4571 7.236 49.9831C7.50391 49.782 7.82829 49.6703 8.16319 49.6639C8.49809 49.6574 8.82654 49.7565 9.102 49.9471ZM4.161 53.0641C4.629 52.3141 5.346 52.1671 6.222 52.2751L6.219 52.2901C5.424 53.4181 5.4 54.5311 6.222 55.6651C5.373 55.7911 4.68 55.6411 4.2 54.9451C3.99638 54.6755 3.88299 54.3486 3.87599 54.0109C3.86899 53.6731 3.96873 53.3418 4.161 53.0641ZM12.234 54.8881C11.754 55.6201 11.049 55.7911 10.17 55.6681C10.968 54.5461 10.986 53.4331 10.17 52.2991C11.019 52.1731 11.703 52.3261 12.195 53.0191C12.3878 53.2909 12.4946 53.6144 12.5016 53.9476C12.5085 54.2808 12.4153 54.6084 12.234 54.8881ZM15.918 37.3621C14.79 36.5791 13.662 36.5491 12.546 37.3621C12.387 36.0001 13.038 35.0701 14.178 35.0431C15.318 35.0161 16.002 35.9011 15.918 37.3621ZM24.48 35.2441C25.194 35.6131 25.464 36.2341 25.38 37.3441C23.97 36.5641 23.4 36.5641 22.044 37.3171C21.858 36.5401 22.056 35.8411 22.617 35.4211C22.8729 35.206 23.1882 35.0739 23.5209 35.0423C23.8537 35.0106 24.1882 35.081 24.48 35.2441ZM10.11 38.5621C10.56 37.7281 11.31 37.5481 12.21 37.6441V37.6471C11.445 39.1141 11.448 39.7141 12.192 40.9741C11.8669 41.0859 11.5155 41.0967 11.184 41.0052C10.8526 40.9136 10.5566 40.7239 10.335 40.4611C10.1053 40.2069 9.96033 39.8876 9.92002 39.5474C9.87972 39.2072 9.9461 38.8629 10.11 38.5621ZM21.705 37.6531C20.931 38.7661 20.883 39.8791 21.726 41.0341V41.0371C20.262 41.1421 19.368 40.4341 19.386 39.3151C19.404 38.1961 20.286 37.5451 21.705 37.6531ZM21.3466 47.9341C21.4583 47.9342 21.5593 47.9364 21.6531 47.9385C21.8267 47.9423 21.9756 47.9456 22.122 47.9341C22.3816 47.9108 22.6323 47.8283 22.8551 47.6931C23.0779 47.5579 23.2668 47.3734 23.4072 47.1539C23.5477 46.9344 23.636 46.6856 23.6654 46.4267C23.6949 46.1677 23.6646 45.9055 23.577 45.6601C23.5212 45.519 23.414 45.4043 23.277 45.3391C22.8657 45.1725 22.436 45.0214 22.0257 44.8771C21.8375 44.811 21.6534 44.7462 21.477 44.6821C22.164 45.7096 22.1491 46.7906 21.3466 47.9341ZM19.2 42.1951C20.205 42.4561 20.622 43.2841 21 44.2051C19.893 43.4401 18.798 43.4791 17.721 44.2501C17.586 43.2181 17.874 42.5041 18.579 42.1651C18.683 42.1091 18.819 42.1277 18.955 42.1464C19.023 42.1557 19.091 42.1651 19.155 42.1651C19.17 42.1651 19.2 42.1951 19.2 42.1951ZM11.4 43.9051C11.9214 44.5949 12.662 45.0868 13.5 45.3001L13.362 45.9901C12.231 45.1651 11.121 45.1531 10.008 45.9421C9.795 44.9791 10.14 44.1601 10.908 43.8421C10.9891 43.8125 11.0761 43.8028 11.1617 43.8137C11.2473 43.8247 11.329 43.856 11.4 43.9051ZM7.395 48.0001C7.254 46.8811 8.175 46.1461 9.564 46.2601L8.943 48.0001H7.395ZM8.8978 53.4927C8.99468 53.6322 9.048 53.7973 9.051 53.9671C9.05192 54.1932 8.96473 54.4108 8.80793 54.5738C8.65112 54.7368 8.43702 54.8323 8.211 54.8401C8.04123 54.8436 7.87422 54.7967 7.73113 54.7052C7.58804 54.6138 7.4753 54.482 7.40719 54.3264C7.33907 54.1709 7.31865 53.9986 7.3485 53.8314C7.37835 53.6643 7.45713 53.5097 7.57487 53.3874C7.69261 53.265 7.84401 53.1803 8.0099 53.144C8.17579 53.1078 8.34872 53.1216 8.50677 53.1836C8.66483 53.2457 8.80092 53.3533 8.8978 53.4927ZM24.1429 40.0717C23.9986 40.1613 23.8308 40.2059 23.661 40.2001C23.4355 40.1892 23.2231 40.0911 23.0686 39.9265C22.9141 39.762 22.8296 39.5438 22.833 39.3181C22.8379 39.1482 22.893 38.9836 22.9915 38.8452C23.09 38.7067 23.2274 38.6006 23.3863 38.5404C23.5452 38.4801 23.7183 38.4684 23.8839 38.5066C24.0494 38.5449 24.1999 38.6314 24.3162 38.7553C24.4325 38.8792 24.5094 39.0348 24.5371 39.2025C24.5649 39.3701 24.5422 39.5422 24.4721 39.6969C24.4019 39.8517 24.2873 39.9821 24.1429 40.0717ZM14.5606 40.15C14.4507 40.1899 14.3337 40.207 14.217 40.2001C13.9986 40.1871 13.7934 40.0913 13.6433 39.9321C13.4933 39.7729 13.4097 39.5623 13.4097 39.3436C13.4097 39.1248 13.4933 38.9143 13.6433 38.7551C13.7934 38.5959 13.9986 38.5 14.217 38.4871C14.3337 38.4802 14.4507 38.4972 14.5606 38.5371C14.6705 38.577 14.7711 38.639 14.8562 38.7192C14.9413 38.7994 15.0091 38.8962 15.0555 39.0035C15.1018 39.1109 15.1257 39.2266 15.1257 39.3436C15.1257 39.4605 15.1018 39.5762 15.0555 39.6836C15.0091 39.791 14.9413 39.8877 14.8562 39.9679C14.7711 40.0481 14.6705 40.1101 14.5606 40.15ZM12.3519 47.4806C12.4458 47.6221 12.4956 47.7882 12.495 47.9581C12.4926 48.1846 12.4014 48.4012 12.2409 48.5611C12.0804 48.721 11.8636 48.8115 11.637 48.8131C11.4672 48.8131 11.3012 48.7627 11.16 48.6683C11.0189 48.5738 10.9089 48.4397 10.844 48.2827C10.7792 48.1258 10.7624 47.9531 10.7957 47.7866C10.8291 47.6201 10.9111 47.4672 11.0314 47.3473C11.1517 47.2274 11.3048 47.146 11.4715 47.1132C11.6381 47.0804 11.8107 47.0978 11.9674 47.1632C12.1242 47.2286 12.2579 47.3391 12.3519 47.4806ZM20.0987 45.7688C20.1921 45.9101 20.2416 46.0758 20.241 46.2451C20.2386 46.4737 20.1457 46.6921 19.9827 46.8523C19.8196 47.0126 19.5996 47.1017 19.371 47.1001C19.2017 47.0977 19.0369 47.0453 18.8973 46.9495C18.7578 46.8536 18.6497 46.7186 18.5866 46.5615C18.5236 46.4043 18.5085 46.2321 18.5432 46.0663C18.5779 45.9006 18.6609 45.7489 18.7816 45.6302C18.9024 45.5115 19.0555 45.4312 19.2218 45.3994C19.3881 45.3676 19.5601 45.3857 19.7161 45.4515C19.8722 45.5172 20.0053 45.6276 20.0987 45.7688ZM11.706 50.6041L13.401 50.0041L13.206 51.4051L11.706 50.6041ZM15.339 49.4191L13.581 49.7731L14.199 48.5431L15.339 49.4191Z" fill="#322C2D"/>
<path d="M60.9875 41.9198C59.4378 41.9082 57.9287 41.4232 56.6625 40.5298C56.5076 40.4364 56.3728 40.3133 56.2658 40.1675C56.1587 40.0218 56.0816 39.8563 56.0389 39.6806C55.9961 39.5049 55.9885 39.3225 56.0166 39.1438C56.0447 38.9652 56.1079 38.7939 56.2025 38.6398C56.2956 38.4834 56.4203 38.3481 56.5687 38.2426C56.717 38.137 56.8857 38.0636 57.064 38.0269C57.2423 37.9902 57.4263 37.9911 57.6042 38.0294C57.7822 38.0678 57.9502 38.1429 58.0975 38.2498C58.9365 38.858 59.9462 39.1856 60.9825 39.1856C62.0188 39.1856 63.0285 38.858 63.8675 38.2498C64.0108 38.149 64.1731 38.0785 64.3445 38.0425C64.5159 38.0065 64.6928 38.0058 64.8645 38.0404C65.0362 38.0751 65.199 38.1443 65.3431 38.2439C65.4872 38.3435 65.6095 38.4714 65.7025 38.6198C65.8033 38.77 65.8732 38.9389 65.9082 39.1164C65.9431 39.2939 65.9424 39.4766 65.9061 39.6539C65.8698 39.8312 65.7987 39.9994 65.6968 40.1489C65.5948 40.2984 65.4642 40.4262 65.3125 40.5248C64.0461 41.4186 62.5374 41.9052 60.9875 41.9198Z" fill="#322C2D"/>
</g>
</g>
<defs>
<clipPath id="clip0_0_93">
<rect width="90" height="90" fill="white"/>
</clipPath>
<clipPath id="clip1_0_93">
<rect width="90" height="90" fill="white" transform="translate(0 -3)"/>
</clipPath>
</defs>
</svg>
