<svg width="11" height="7" viewBox="0 0 11 7" fill="none" xmlns="http://www.w3.org/2000/svg">
<path d="M0.217623 1.24781L5.09364 6.13835C5.15169 6.19639 5.21457 6.23742 5.28229 6.26141C5.35001 6.28579 5.42257 6.29798 5.49997 6.29798C5.57737 6.29798 5.64993 6.28579 5.71765 6.26141C5.78537 6.23742 5.84826 6.19639 5.90631 6.13835L10.7968 1.24781C10.9323 1.11236 11 0.943057 11 0.739889C11 0.536722 10.9274 0.362578 10.7823 0.217458C10.6372 0.0723383 10.4679 -0.000221641 10.2744 -0.000221644C10.0809 -0.000221646 9.9116 0.0723383 9.76648 0.217458L5.49997 4.48398L1.23346 0.217458C1.09802 0.0820125 0.931223 0.01429 0.733087 0.01429C0.534564 0.01429 0.362743 0.0868499 0.217623 0.23197C0.0725036 0.37709 -5.5822e-05 0.546396 -5.58243e-05 0.739889C-5.58266e-05 0.933382 0.0725036 1.10269 0.217623 1.24781Z" fill="white"/>
</svg>
