<svg width="33" height="28" viewBox="0 0 33 28" fill="none" xmlns="http://www.w3.org/2000/svg">
<path d="M1.62898 28.0001C1.62898 28.0001 4.87878 26.3342 6.17871 24.2337C7.47863 22.2056 7.80361 21.0467 7.39739 20.105C6.50369 18.1494 7.72237 14.5278 8.61607 15.5418C9.50977 16.5559 9.0223 19.3083 9.75351 18.6564C10.4847 18.0045 10.3222 14.4554 12.5971 13.5137C14.872 12.5721 16.3344 14.3105 19.0155 13.9483C21.8591 13.5862 25.9213 12.3548 27.3025 11.4857C31.771 8.58839 33.4771 5.40139 31.8522 2.86627C29.2524 -1.04505 24.1339 -0.465593 17.2281 1.70736C9.99724 3.95275 0.735272 8.1538 1.06025 10.1095C1.38523 11.9927 5.12252 13.8035 3.09139 13.8035C1.06025 13.731 -0.0771709 14.89 0.00407441 16.411C0.24781 19.6705 3.0914 24.1612 1.62898 28.0001Z" fill="#172755"/>
</svg>
