<svg width="21" height="20" viewBox="0 0 21 20" fill="none" xmlns="http://www.w3.org/2000/svg">
<path d="M20.7995 19.7015C20.7436 19.7514 20.6598 19.7514 20.548 19.7015L11.412 15.5917V15.4423C11.412 15.4423 11.1606 13.7983 8.56226 9.16544C5.96395 4.45781 0.1806 0.497427 0.0967831 0.497427C0.0129665 0.422703 -0.0708501 0.198531 0.0967831 0.123806C0.1806 -0.025642 0.34824 -0.0256409 0.432057 0.0490833C0.515874 0.123808 6.38304 4.15891 9.06517 8.94126C11.3282 12.9764 11.8311 14.7698 11.9987 15.2181L20.7995 19.2532C20.9671 19.3279 21.0509 19.4774 20.9671 19.5521C20.9112 19.6019 20.8554 19.6517 20.7995 19.7015Z" fill="#012C20"/>
</svg>
